<svg width="832" height="777" viewBox="0 0 832 777" fill="none" xmlns="http://www.w3.org/2000/svg">
<path d="M125.012 246.563C172.407 246.563 210.828 191.592 210.828 123.782C210.828 55.9712 172.407 1 125.012 1C77.6175 1 39.1963 55.9712 39.1963 123.782C39.1963 191.592 77.6175 246.563 125.012 246.563Z" stroke="#D3D3D3" stroke-miterlimit="10" stroke-dasharray="12.14 12.14"/>
<path d="M174.546 98.1729C157.965 108.496 141.523 121.201 129.938 141.052C118.352 160.904 112.525 189.391 119.532 213.312C128.828 245.173 158.243 263.735 158.381 298.276C158.451 322.991 142.495 341.85 126.4 350.883C110.305 359.915 92.4758 363.091 77.8378 376.293C55.7074 396.144 45.3706 434.557 41.1388 471.381C36.7682 509.596 38.5025 553.17 57.4417 580.962C80.9597 615.404 119.809 611.533 153.109 604.188C197.509 594.361 241.7 582.848 285.961 571.334C382.877 546.023 479.793 520.812 576.64 495.501C587.046 492.821 597.868 489.843 606.262 480.712C623.051 462.647 624.438 425.425 614.726 398.923C605.014 372.322 586.976 354.257 569.078 338.674C551.179 323.091 532.24 308.301 518.851 285.174C505.461 262.047 498.801 227.903 508.93 201.699C517.533 179.465 535.986 167.554 544.034 144.923C554.648 115.047 542.438 76.9318 523.152 57.8743C503.796 38.6184 262.027 43.3827 174.546 98.1729Z" fill="#FBFBFB"/>
<path d="M678.481 776.4H9.01867C4.02371 776.4 0 770.544 0 763.497V686.572C0 679.425 4.09309 673.668 9.01867 673.668H678.481C683.476 673.668 687.5 679.525 687.5 686.572V763.497C687.5 770.544 683.407 776.4 678.481 776.4Z" fill="#FCFCFC"/>
<path d="M368.047 669.336H100.902C96.5854 669.336 93 664.499 93 658.451V60.885C93 54.9386 96.5122 50 100.902 50H368.047C372.364 50 375.949 54.8378 375.949 60.885V658.451C375.949 664.499 372.437 669.336 368.047 669.336Z" fill="#C5C5C5"/>
<path d="M368.034 657.601H101.304C96.9924 657.601 93.4116 652.859 93.4116 646.932V61.2688C93.4116 55.4408 96.9193 50.6006 101.304 50.6006H368.107C372.419 50.6006 376 55.342 376 61.2688V646.932C375.927 652.859 372.419 657.601 368.034 657.601Z" stroke="#464647" stroke-miterlimit="10"/>
<path d="M349.535 92.9351H119.415V626.502H349.535V92.9351Z" fill="#ACACAC"/>
<path d="M342.657 100.091H126.366V190.397H342.657V100.091Z" fill="#464647"/>
<path d="M322.023 142.12H142.39C135.585 142.12 130.097 134.46 130.097 125.187V125.087C130.097 115.713 135.658 108.154 142.39 108.154H322.023C328.827 108.154 334.315 115.814 334.315 125.087V125.187C334.315 134.46 328.827 142.12 322.023 142.12Z" fill="#F7F7F7"/>
<path d="M144.805 117.427H213.292C216.366 117.427 218.853 120.854 218.853 125.087C218.853 129.32 216.366 132.746 213.292 132.746H144.805C141.732 132.746 139.244 129.32 139.244 125.087C139.244 120.854 141.732 117.427 144.805 117.427Z" fill="#ACACAC"/>
<path d="M146.341 130.025C148.321 130.025 149.926 127.814 149.926 125.087C149.926 122.359 148.321 120.148 146.341 120.148C144.361 120.148 142.755 122.359 142.755 125.087C142.755 127.814 144.361 130.025 146.341 130.025Z" fill="#C9FF55"/>
<path d="M154.755 130.025C156.735 130.025 158.341 127.814 158.341 125.087C158.341 122.359 156.735 120.148 154.755 120.148C152.775 120.148 151.17 122.359 151.17 125.087C151.17 127.814 152.775 130.025 154.755 130.025Z" fill="#C9FF55"/>
<path d="M163.097 130.025C165.077 130.025 166.682 127.814 166.682 125.087C166.682 122.359 165.077 120.148 163.097 120.148C161.117 120.148 159.512 122.359 159.512 125.087C159.512 127.814 161.117 130.025 163.097 130.025Z" fill="#C9FF55"/>
<path d="M171.512 130.025C173.492 130.025 175.097 127.814 175.097 125.087C175.097 122.359 173.492 120.148 171.512 120.148C169.531 120.148 167.926 122.359 167.926 125.087C167.926 127.814 169.531 130.025 171.512 130.025Z" fill="#C9FF55"/>
<path d="M179.926 130.025C181.906 130.025 183.511 127.814 183.511 125.087C183.511 122.359 181.906 120.148 179.926 120.148C177.946 120.148 176.341 122.359 176.341 125.087C176.341 127.814 177.946 130.025 179.926 130.025Z" fill="#C9FF55"/>
<path d="M188.341 130.025C190.321 130.025 191.926 127.814 191.926 125.087C191.926 122.359 190.321 120.148 188.341 120.148C186.361 120.148 184.755 122.359 184.755 125.087C184.755 127.814 186.361 130.025 188.341 130.025Z" fill="#C9FF55"/>
<path d="M322.023 182.636H142.39C135.585 182.636 130.097 174.976 130.097 165.704V165.603C130.097 156.23 135.658 148.671 142.39 148.671H322.023C328.827 148.671 334.315 156.331 334.315 165.603V165.704C334.315 175.077 328.827 182.636 322.023 182.636Z" fill="#F7F7F7"/>
<path d="M144.805 157.943H213.292C216.366 157.943 218.853 161.37 218.853 165.603C218.853 169.836 216.366 173.263 213.292 173.263H144.805C141.732 173.263 139.244 169.836 139.244 165.603C139.244 161.37 141.732 157.943 144.805 157.943Z" fill="#ACACAC"/>
<path d="M146.341 170.541C148.321 170.541 149.926 168.33 149.926 165.603C149.926 162.875 148.321 160.664 146.341 160.664C144.361 160.664 142.755 162.875 142.755 165.603C142.755 168.33 144.361 170.541 146.341 170.541Z" fill="#C9FF55"/>
<path d="M154.755 170.541C156.735 170.541 158.341 168.33 158.341 165.603C158.341 162.875 156.735 160.664 154.755 160.664C152.775 160.664 151.17 162.875 151.17 165.603C151.17 168.33 152.775 170.541 154.755 170.541Z" fill="#C9FF55"/>
<path d="M163.097 170.541C165.077 170.541 166.682 168.33 166.682 165.603C166.682 162.875 165.077 160.664 163.097 160.664C161.117 160.664 159.512 162.875 159.512 165.603C159.512 168.33 161.117 170.541 163.097 170.541Z" fill="#C9FF55"/>
<path d="M171.512 170.541C173.492 170.541 175.097 168.33 175.097 165.603C175.097 162.875 173.492 160.664 171.512 160.664C169.531 160.664 167.926 162.875 167.926 165.603C167.926 168.33 169.531 170.541 171.512 170.541Z" fill="#C9FF55"/>
<path d="M179.926 170.541C181.906 170.541 183.511 168.33 183.511 165.603C183.511 162.875 181.906 160.664 179.926 160.664C177.946 160.664 176.341 162.875 176.341 165.603C176.341 168.33 177.946 170.541 179.926 170.541Z" fill="#C9FF55"/>
<path d="M188.341 170.541C190.321 170.541 191.926 168.33 191.926 165.603C191.926 162.875 190.321 160.664 188.341 160.664C186.361 160.664 184.755 162.875 184.755 165.603C184.755 168.33 186.361 170.541 188.341 170.541Z" fill="#C9FF55"/>
<path d="M342.657 203.7H126.366V294.005H342.657V203.7Z" fill="#464647"/>
<path d="M322.023 245.628H142.39C135.585 245.628 130.097 237.968 130.097 228.696V228.595C130.097 219.222 135.658 211.663 142.39 211.663H322.023C328.827 211.663 334.315 219.322 334.315 228.595V228.696C334.315 238.069 328.827 245.628 322.023 245.628Z" fill="#F7F7F7"/>
<path d="M144.805 220.935H213.292C216.366 220.935 218.853 224.362 218.853 228.595C218.853 232.828 216.366 236.255 213.292 236.255H144.805C141.732 236.255 139.244 232.828 139.244 228.595C139.244 224.362 141.732 220.935 144.805 220.935Z" fill="#ACACAC"/>
<path d="M146.341 233.533C148.321 233.533 149.926 231.322 149.926 228.594C149.926 225.867 148.321 223.656 146.341 223.656C144.361 223.656 142.755 225.867 142.755 228.594C142.755 231.322 144.361 233.533 146.341 233.533Z" fill="#C9FF55"/>
<path d="M154.755 233.533C156.735 233.533 158.341 231.322 158.341 228.594C158.341 225.867 156.735 223.656 154.755 223.656C152.775 223.656 151.17 225.867 151.17 228.594C151.17 231.322 152.775 233.533 154.755 233.533Z" fill="#C9FF55"/>
<path d="M163.097 233.533C165.077 233.533 166.682 231.322 166.682 228.594C166.682 225.867 165.077 223.656 163.097 223.656C161.117 223.656 159.512 225.867 159.512 228.594C159.512 231.322 161.117 233.533 163.097 233.533Z" fill="#C9FF55"/>
<path d="M171.512 233.533C173.492 233.533 175.097 231.322 175.097 228.594C175.097 225.867 173.492 223.656 171.512 223.656C169.531 223.656 167.926 225.867 167.926 228.594C167.926 231.322 169.531 233.533 171.512 233.533Z" fill="#C9FF55"/>
<path d="M179.926 233.533C181.906 233.533 183.511 231.322 183.511 228.594C183.511 225.867 181.906 223.656 179.926 223.656C177.946 223.656 176.341 225.867 176.341 228.594C176.341 231.322 177.946 233.533 179.926 233.533Z" fill="#C9FF55"/>
<path d="M188.341 233.533C190.321 233.533 191.926 231.322 191.926 228.594C191.926 225.867 190.321 223.656 188.341 223.656C186.361 223.656 184.755 225.867 184.755 228.594C184.755 231.322 186.361 233.533 188.341 233.533Z" fill="#C9FF55"/>
<path d="M322.023 286.245H142.39C135.585 286.245 130.097 278.585 130.097 269.313V269.212C130.097 259.839 135.658 252.28 142.39 252.28H322.023C328.827 252.28 334.315 259.94 334.315 269.212V269.313C334.315 278.585 328.827 286.245 322.023 286.245Z" fill="#F7F7F7"/>
<path d="M144.805 261.452H213.292C216.366 261.452 218.853 264.878 218.853 269.111C218.853 273.345 216.366 276.771 213.292 276.771H144.805C141.732 276.771 139.244 273.345 139.244 269.111C139.244 264.979 141.732 261.452 144.805 261.452Z" fill="#ACACAC"/>
<path d="M146.341 274.15C148.321 274.15 149.926 271.939 149.926 269.212C149.926 266.484 148.321 264.273 146.341 264.273C144.361 264.273 142.755 266.484 142.755 269.212C142.755 271.939 144.361 274.15 146.341 274.15Z" fill="#C9FF55"/>
<path d="M154.755 274.15C156.735 274.15 158.341 271.939 158.341 269.212C158.341 266.484 156.735 264.273 154.755 264.273C152.775 264.273 151.17 266.484 151.17 269.212C151.17 271.939 152.775 274.15 154.755 274.15Z" fill="#C9FF55"/>
<path d="M163.097 274.15C165.077 274.15 166.682 271.939 166.682 269.212C166.682 266.484 165.077 264.273 163.097 264.273C161.117 264.273 159.512 266.484 159.512 269.212C159.512 271.939 161.117 274.15 163.097 274.15Z" fill="#C9FF55"/>
<path d="M171.512 274.15C173.492 274.15 175.097 271.939 175.097 269.212C175.097 266.484 173.492 264.273 171.512 264.273C169.531 264.273 167.926 266.484 167.926 269.212C167.926 271.939 169.531 274.15 171.512 274.15Z" fill="#C9FF55"/>
<path d="M179.926 274.15C181.906 274.15 183.511 271.939 183.511 269.212C183.511 266.484 181.906 264.273 179.926 264.273C177.946 264.273 176.341 266.484 176.341 269.212C176.341 271.939 177.946 274.15 179.926 274.15Z" fill="#C9FF55"/>
<path d="M188.341 274.15C190.321 274.15 191.926 271.939 191.926 269.212C191.926 266.484 190.321 264.273 188.341 264.273C186.361 264.273 184.755 266.484 184.755 269.212C184.755 271.939 186.361 274.15 188.341 274.15Z" fill="#C9FF55"/>
<path d="M342.657 307.209H126.366V397.514H342.657V307.209Z" fill="#464647"/>
<path d="M322.023 349.236H142.39C135.585 349.236 130.097 341.576 130.097 332.304V332.203C130.097 322.83 135.658 315.271 142.39 315.271H322.023C328.827 315.271 334.315 322.931 334.315 332.203V332.304C334.315 341.576 328.827 349.236 322.023 349.236Z" fill="#F7F7F7"/>
<path d="M144.805 324.443H213.292C216.366 324.443 218.853 327.87 218.853 332.103C218.853 336.336 216.366 339.763 213.292 339.763H144.805C141.732 339.763 139.244 336.336 139.244 332.103C139.244 327.971 141.732 324.443 144.805 324.443Z" fill="#ACACAC"/>
<path d="M146.341 337.142C148.321 337.142 149.926 334.931 149.926 332.204C149.926 329.476 148.321 327.265 146.341 327.265C144.361 327.265 142.755 329.476 142.755 332.204C142.755 334.931 144.361 337.142 146.341 337.142Z" fill="#C9FF55"/>
<path d="M154.755 337.142C156.735 337.142 158.341 334.931 158.341 332.204C158.341 329.476 156.735 327.265 154.755 327.265C152.775 327.265 151.17 329.476 151.17 332.204C151.17 334.931 152.775 337.142 154.755 337.142Z" fill="#C9FF55"/>
<path d="M163.097 337.142C165.077 337.142 166.682 334.931 166.682 332.204C166.682 329.476 165.077 327.265 163.097 327.265C161.117 327.265 159.512 329.476 159.512 332.204C159.512 334.931 161.117 337.142 163.097 337.142Z" fill="#C9FF55"/>
<path d="M171.512 337.142C173.492 337.142 175.097 334.931 175.097 332.204C175.097 329.476 173.492 327.265 171.512 327.265C169.531 327.265 167.926 329.476 167.926 332.204C167.926 334.931 169.531 337.142 171.512 337.142Z" fill="#C9FF55"/>
<path d="M179.926 337.142C181.906 337.142 183.511 334.931 183.511 332.204C183.511 329.476 181.906 327.265 179.926 327.265C177.946 327.265 176.341 329.476 176.341 332.204C176.341 334.931 177.946 337.142 179.926 337.142Z" fill="#C9FF55"/>
<path d="M188.341 337.142C190.321 337.142 191.926 334.931 191.926 332.204C191.926 329.476 190.321 327.265 188.341 327.265C186.361 327.265 184.755 329.476 184.755 332.204C184.755 334.931 186.361 337.142 188.341 337.142Z" fill="#C9FF55"/>
<path d="M322.023 389.753H142.39C135.585 389.753 130.097 382.094 130.097 372.821V372.72C130.097 363.347 135.658 355.788 142.39 355.788H322.023C328.827 355.788 334.315 363.448 334.315 372.72V372.821C334.315 382.094 328.827 389.753 322.023 389.753Z" fill="#F7F7F7"/>
<path d="M144.805 365.061H213.292C216.366 365.061 218.853 368.487 218.853 372.72C218.853 376.953 216.366 380.38 213.292 380.38H144.805C141.732 380.38 139.244 376.953 139.244 372.72C139.244 368.487 141.732 365.061 144.805 365.061Z" fill="#ACACAC"/>
<path d="M146.341 377.659C148.321 377.659 149.926 375.448 149.926 372.721C149.926 369.993 148.321 367.782 146.341 367.782C144.361 367.782 142.755 369.993 142.755 372.721C142.755 375.448 144.361 377.659 146.341 377.659Z" fill="#C9FF55"/>
<path d="M154.755 377.659C156.735 377.659 158.341 375.448 158.341 372.721C158.341 369.993 156.735 367.782 154.755 367.782C152.775 367.782 151.17 369.993 151.17 372.721C151.17 375.448 152.775 377.659 154.755 377.659Z" fill="#C9FF55"/>
<path d="M163.097 377.659C165.077 377.659 166.682 375.448 166.682 372.721C166.682 369.993 165.077 367.782 163.097 367.782C161.117 367.782 159.512 369.993 159.512 372.721C159.512 375.448 161.117 377.659 163.097 377.659Z" fill="#C9FF55"/>
<path d="M171.512 377.659C173.492 377.659 175.097 375.448 175.097 372.721C175.097 369.993 173.492 367.782 171.512 367.782C169.531 367.782 167.926 369.993 167.926 372.721C167.926 375.448 169.531 377.659 171.512 377.659Z" fill="#C9FF55"/>
<path d="M179.926 377.659C181.906 377.659 183.511 375.448 183.511 372.721C183.511 369.993 181.906 367.782 179.926 367.782C177.946 367.782 176.341 369.993 176.341 372.721C176.341 375.448 177.946 377.659 179.926 377.659Z" fill="#C9FF55"/>
<path d="M188.341 377.659C190.321 377.659 191.926 375.448 191.926 372.721C191.926 369.993 190.321 367.782 188.341 367.782C186.361 367.782 184.755 369.993 184.755 372.721C184.755 375.448 186.361 377.659 188.341 377.659Z" fill="#C9FF55"/>
<path d="M342.657 410.717H126.366V501.022H342.657V410.717Z" fill="#464647"/>
<path d="M322.023 452.745H142.39C135.585 452.745 130.097 445.085 130.097 435.813V435.712C130.097 426.339 135.658 418.78 142.39 418.78H322.023C328.827 418.78 334.315 426.44 334.315 435.712V435.813C334.315 445.085 328.827 452.745 322.023 452.745Z" fill="#F7F7F7"/>
<path d="M144.805 428.052H213.292C216.366 428.052 218.853 431.479 218.853 435.712C218.853 439.945 216.366 443.371 213.292 443.371H144.805C141.732 443.371 139.244 439.945 139.244 435.712C139.244 431.479 141.732 428.052 144.805 428.052Z" fill="#ACACAC"/>
<path d="M146.341 440.651C148.321 440.651 149.926 438.44 149.926 435.712C149.926 432.985 148.321 430.773 146.341 430.773C144.361 430.773 142.755 432.985 142.755 435.712C142.755 438.44 144.361 440.651 146.341 440.651Z" fill="#C9FF55"/>
<path d="M154.755 440.651C156.735 440.651 158.341 438.44 158.341 435.712C158.341 432.985 156.735 430.773 154.755 430.773C152.775 430.773 151.17 432.985 151.17 435.712C151.17 438.44 152.775 440.651 154.755 440.651Z" fill="#C9FF55"/>
<path d="M163.097 440.651C165.077 440.651 166.682 438.44 166.682 435.712C166.682 432.985 165.077 430.773 163.097 430.773C161.117 430.773 159.512 432.985 159.512 435.712C159.512 438.44 161.117 440.651 163.097 440.651Z" fill="#C9FF55"/>
<path d="M171.512 440.651C173.492 440.651 175.097 438.44 175.097 435.712C175.097 432.985 173.492 430.773 171.512 430.773C169.531 430.773 167.926 432.985 167.926 435.712C167.926 438.44 169.531 440.651 171.512 440.651Z" fill="#C9FF55"/>
<path d="M179.926 440.651C181.906 440.651 183.511 438.44 183.511 435.712C183.511 432.985 181.906 430.773 179.926 430.773C177.946 430.773 176.341 432.985 176.341 435.712C176.341 438.44 177.946 440.651 179.926 440.651Z" fill="#C9FF55"/>
<path d="M188.341 440.651C190.321 440.651 191.926 438.44 191.926 435.712C191.926 432.985 190.321 430.773 188.341 430.773C186.361 430.773 184.755 432.985 184.755 435.712C184.755 438.44 186.361 440.651 188.341 440.651Z" fill="#C9FF55"/>
<path d="M322.023 493.363H142.39C135.585 493.363 130.097 485.703 130.097 476.43V476.33C130.097 466.956 135.658 459.397 142.39 459.397H322.023C328.827 459.397 334.315 467.057 334.315 476.33V476.43C334.315 485.703 328.827 493.363 322.023 493.363Z" fill="#F7F7F7"/>
<path d="M144.805 468.569H213.292C216.366 468.569 218.853 471.996 218.853 476.229C218.853 480.462 216.366 483.889 213.292 483.889H144.805C141.732 483.889 139.244 480.462 139.244 476.229C139.244 472.097 141.732 468.569 144.805 468.569Z" fill="#ACACAC"/>
<path d="M146.341 481.268C148.321 481.268 149.926 479.057 149.926 476.329C149.926 473.602 148.321 471.391 146.341 471.391C144.361 471.391 142.755 473.602 142.755 476.329C142.755 479.057 144.361 481.268 146.341 481.268Z" fill="#C9FF55"/>
<path d="M154.755 481.268C156.735 481.268 158.341 479.057 158.341 476.329C158.341 473.602 156.735 471.391 154.755 471.391C152.775 471.391 151.17 473.602 151.17 476.329C151.17 479.057 152.775 481.268 154.755 481.268Z" fill="#C9FF55"/>
<path d="M163.097 481.268C165.077 481.268 166.682 479.057 166.682 476.329C166.682 473.602 165.077 471.391 163.097 471.391C161.117 471.391 159.512 473.602 159.512 476.329C159.512 479.057 161.117 481.268 163.097 481.268Z" fill="#C9FF55"/>
<path d="M171.512 481.268C173.492 481.268 175.097 479.057 175.097 476.329C175.097 473.602 173.492 471.391 171.512 471.391C169.531 471.391 167.926 473.602 167.926 476.329C167.926 479.057 169.531 481.268 171.512 481.268Z" fill="#C9FF55"/>
<path d="M179.926 481.268C181.906 481.268 183.511 479.057 183.511 476.329C183.511 473.602 181.906 471.391 179.926 471.391C177.946 471.391 176.341 473.602 176.341 476.329C176.341 479.057 177.946 481.268 179.926 481.268Z" fill="#C9FF55"/>
<path d="M188.341 481.268C190.321 481.268 191.926 479.057 191.926 476.329C191.926 473.602 190.321 471.391 188.341 471.391C186.361 471.391 184.755 473.602 184.755 476.329C184.755 479.057 186.361 481.268 188.341 481.268Z" fill="#C9FF55"/>
<path d="M342.657 514.326H126.366V604.631H342.657V514.326Z" fill="#464647"/>
<path d="M322.023 556.354H142.39C135.585 556.354 130.097 548.695 130.097 539.422V539.321C130.097 529.948 135.658 522.389 142.39 522.389H322.023C328.827 522.389 334.315 530.049 334.315 539.321V539.422C334.315 548.695 328.827 556.354 322.023 556.354Z" fill="#F7F7F7"/>
<path d="M144.805 531.561H213.292C216.366 531.561 218.853 534.987 218.853 539.22C218.853 543.453 216.366 546.88 213.292 546.88H144.805C141.732 546.88 139.244 543.453 139.244 539.22C139.244 535.088 141.732 531.561 144.805 531.561Z" fill="#ACACAC"/>
<path d="M146.341 544.259C148.321 544.259 149.926 542.048 149.926 539.32C149.926 536.593 148.321 534.382 146.341 534.382C144.361 534.382 142.755 536.593 142.755 539.32C142.755 542.048 144.361 544.259 146.341 544.259Z" fill="#C9FF55"/>
<path d="M154.755 544.259C156.735 544.259 158.341 542.048 158.341 539.32C158.341 536.593 156.735 534.382 154.755 534.382C152.775 534.382 151.17 536.593 151.17 539.32C151.17 542.048 152.775 544.259 154.755 544.259Z" fill="#C9FF55"/>
<path d="M163.097 544.259C165.077 544.259 166.682 542.048 166.682 539.32C166.682 536.593 165.077 534.382 163.097 534.382C161.117 534.382 159.512 536.593 159.512 539.32C159.512 542.048 161.117 544.259 163.097 544.259Z" fill="#C9FF55"/>
<path d="M171.512 544.259C173.492 544.259 175.097 542.048 175.097 539.32C175.097 536.593 173.492 534.382 171.512 534.382C169.531 534.382 167.926 536.593 167.926 539.32C167.926 542.048 169.531 544.259 171.512 544.259Z" fill="#C9FF55"/>
<path d="M179.926 544.259C181.906 544.259 183.511 542.048 183.511 539.32C183.511 536.593 181.906 534.382 179.926 534.382C177.946 534.382 176.341 536.593 176.341 539.32C176.341 542.048 177.946 544.259 179.926 544.259Z" fill="#C9FF55"/>
<path d="M188.341 544.259C190.321 544.259 191.926 542.048 191.926 539.32C191.926 536.593 190.321 534.382 188.341 534.382C186.361 534.382 184.755 536.593 184.755 539.32C184.755 542.048 186.361 544.259 188.341 544.259Z" fill="#C9FF55"/>
<path d="M322.023 596.87H142.39C135.585 596.87 130.097 589.21 130.097 579.938V579.837C130.097 570.464 135.658 562.905 142.39 562.905H322.023C328.827 562.905 334.315 570.565 334.315 579.837V579.938C334.315 589.21 328.827 596.87 322.023 596.87Z" fill="#F7F7F7"/>
<path d="M144.805 572.179H213.292C216.366 572.179 218.853 575.606 218.853 579.839C218.853 584.072 216.366 587.498 213.292 587.498H144.805C141.732 587.498 139.244 584.072 139.244 579.839C139.244 575.606 141.732 572.179 144.805 572.179Z" fill="#ACACAC"/>
<path d="M146.341 584.777C148.321 584.777 149.926 582.566 149.926 579.838C149.926 577.111 148.321 574.9 146.341 574.9C144.361 574.9 142.755 577.111 142.755 579.838C142.755 582.566 144.361 584.777 146.341 584.777Z" fill="#C9FF55"/>
<path d="M154.755 584.777C156.735 584.777 158.341 582.566 158.341 579.838C158.341 577.111 156.735 574.9 154.755 574.9C152.775 574.9 151.17 577.111 151.17 579.838C151.17 582.566 152.775 584.777 154.755 584.777Z" fill="#C9FF55"/>
<path d="M163.097 584.777C165.077 584.777 166.682 582.566 166.682 579.838C166.682 577.111 165.077 574.9 163.097 574.9C161.117 574.9 159.512 577.111 159.512 579.838C159.512 582.566 161.117 584.777 163.097 584.777Z" fill="#C9FF55"/>
<path d="M171.512 584.777C173.492 584.777 175.097 582.566 175.097 579.838C175.097 577.111 173.492 574.9 171.512 574.9C169.531 574.9 167.926 577.111 167.926 579.838C167.926 582.566 169.531 584.777 171.512 584.777Z" fill="#C9FF55"/>
<path d="M179.926 584.777C181.906 584.777 183.511 582.566 183.511 579.838C183.511 577.111 181.906 574.9 179.926 574.9C177.946 574.9 176.341 577.111 176.341 579.838C176.341 582.566 177.946 584.777 179.926 584.777Z" fill="#C9FF55"/>
<path d="M188.341 584.777C190.321 584.777 191.926 582.566 191.926 579.838C191.926 577.111 190.321 574.9 188.341 574.9C186.361 574.9 184.755 577.111 184.755 579.838C184.755 582.566 186.361 584.777 188.341 584.777Z" fill="#C9FF55"/>
<path d="M832 123.999V333.675C832 339.912 823.889 345 813.882 345H430.483C420.476 345 412.371 339.928 412.371 333.675V123.999C412.371 117.75 420.476 111.384 430.483 111.384L813.833 112.075C823.824 112.075 832 117.75 832 123.999Z" fill="white"/>
<path d="M819.415 109H423.394C420.108 109.004 416.958 110.323 414.634 112.67C412.311 115.016 411.004 118.197 411 121.515V332.485C411.004 335.803 412.311 338.984 414.634 341.33C416.958 343.677 420.108 344.996 423.394 345H819.415C822.701 344.996 825.851 343.677 828.175 341.33C830.498 338.984 831.805 335.803 831.809 332.485V121.515C831.805 118.197 830.498 115.016 828.175 112.67C825.851 110.323 822.701 109.004 819.415 109ZM830.629 332.485C830.626 335.487 829.444 338.366 827.341 340.489C825.239 342.612 822.388 343.805 819.415 343.808H423.394C420.421 343.805 417.57 342.612 415.468 340.489C413.365 338.366 412.183 335.487 412.18 332.485V121.515C412.183 118.513 413.365 115.634 415.468 113.511C417.57 111.388 420.421 110.195 423.394 110.192H819.415C822.388 110.195 825.239 111.388 827.341 113.511C829.444 115.634 830.626 118.513 830.629 121.515V332.485Z" fill="#3F3D56"/>
<path d="M799.938 143.19H442.87C442.714 143.19 442.564 143.127 442.453 143.015C442.342 142.904 442.28 142.752 442.28 142.594C442.28 142.436 442.342 142.284 442.453 142.173C442.564 142.061 442.714 141.998 442.87 141.998H799.938C800.095 141.998 800.245 142.061 800.356 142.173C800.466 142.284 800.529 142.436 800.529 142.594C800.529 142.752 800.466 142.904 800.356 143.015C800.245 143.127 800.095 143.19 799.938 143.19Z" fill="#3F3D56"/>
<path d="M543.794 319.373C543.637 319.373 543.487 319.311 543.376 319.199C543.266 319.087 543.204 318.936 543.204 318.778V122.707C543.204 122.549 543.266 122.397 543.376 122.285C543.487 122.174 543.637 122.111 543.794 122.111C543.95 122.111 544.1 122.174 544.211 122.285C544.322 122.397 544.384 122.549 544.384 122.707V318.778C544.384 318.936 544.322 319.087 544.211 319.199C544.1 319.311 543.95 319.373 543.794 319.373V319.373Z" fill="#3F3D56"/>
<path d="M632.913 319.373C632.756 319.373 632.606 319.311 632.496 319.199C632.385 319.087 632.323 318.936 632.323 318.778V122.707C632.323 122.549 632.385 122.397 632.496 122.285C632.606 122.174 632.756 122.111 632.913 122.111C633.069 122.111 633.22 122.174 633.33 122.285C633.441 122.397 633.503 122.549 633.503 122.707V318.778C633.503 318.936 633.441 319.087 633.33 319.199C633.22 319.311 633.069 319.373 632.913 319.373V319.373Z" fill="#3F3D56"/>
<path d="M722.033 319.373C721.876 319.373 721.726 319.311 721.615 319.199C721.505 319.087 721.442 318.936 721.442 318.778V122.707C721.442 122.549 721.505 122.397 721.615 122.285C721.726 122.174 721.876 122.111 722.033 122.111C722.189 122.111 722.339 122.174 722.45 122.285C722.561 122.397 722.623 122.549 722.623 122.707V318.778C722.623 318.936 722.561 319.087 722.45 319.199C722.339 319.311 722.189 319.373 722.033 319.373V319.373Z" fill="#3F3D56"/>
<path d="M486.495 204.703H464.929C464.225 204.702 463.55 204.42 463.052 203.917C462.554 203.414 462.274 202.732 462.273 202.021V176.324C462.274 175.613 462.554 174.931 463.052 174.428C463.55 173.926 464.225 173.643 464.929 173.642H486.495C487.199 173.643 487.874 173.926 488.372 174.428C488.87 174.931 489.15 175.613 489.151 176.324V202.021C489.15 202.732 488.87 203.414 488.372 203.917C487.874 204.42 487.199 204.702 486.495 204.703V204.703Z" fill="#6C63FF"/>
<path d="M517.185 278.006H495.619C494.915 278.006 494.24 277.723 493.742 277.22C493.244 276.717 492.964 276.036 492.963 275.325V249.627C492.964 248.916 493.244 248.234 493.742 247.732C494.24 247.229 494.915 246.946 495.619 246.945H517.185C517.889 246.946 518.564 247.229 519.062 247.732C519.56 248.234 519.84 248.916 519.841 249.627V275.325C519.84 276.036 519.56 276.717 519.062 277.22C518.564 277.723 517.889 278.006 517.185 278.006V278.006Z" fill="#6C63FF"/>
<path d="M586.829 220.198H565.263C564.559 220.198 563.884 219.915 563.386 219.412C562.888 218.909 562.608 218.228 562.607 217.517V191.819C562.608 191.108 562.888 190.426 563.386 189.924C563.884 189.421 564.559 189.138 565.263 189.137H586.829C587.533 189.138 588.208 189.421 588.706 189.924C589.204 190.426 589.484 191.108 589.484 191.819V217.517C589.484 218.228 589.204 218.909 588.706 219.412C588.208 219.915 587.533 220.198 586.829 220.198V220.198Z" fill="#6C63FF"/>
<path d="M677.128 192.189H655.563C654.858 192.188 654.183 191.905 653.685 191.402C653.188 190.899 652.908 190.218 652.907 189.507V163.809C652.908 163.098 653.188 162.417 653.685 161.914C654.183 161.411 654.858 161.128 655.563 161.127H677.128C677.832 161.128 678.508 161.411 679.005 161.914C679.503 162.417 679.783 163.098 679.784 163.809V189.507C679.783 190.218 679.503 190.899 679.005 191.402C678.508 191.905 677.832 192.188 677.128 192.189V192.189Z" fill="#6C63FF"/>
<path d="M760.346 192.189H738.78C738.076 192.188 737.401 191.905 736.903 191.402C736.405 190.899 736.125 190.218 736.124 189.507V163.809C736.125 163.098 736.405 162.417 736.903 161.914C737.401 161.411 738.076 161.128 738.78 161.127H760.346C761.05 161.128 761.725 161.411 762.223 161.914C762.721 162.417 763.001 163.098 763.001 163.809V189.507C763.001 190.218 762.721 190.899 762.223 191.402C761.725 191.905 761.05 192.188 760.346 192.189V192.189Z" fill="#6C63FF"/>
<path d="M798.708 199.34H777.143C776.439 199.339 775.763 199.056 775.266 198.554C774.768 198.051 774.488 197.369 774.487 196.658V170.961C774.488 170.25 774.768 169.568 775.266 169.065C775.763 168.562 776.439 168.28 777.143 168.279H798.708C799.413 168.28 800.088 168.562 800.586 169.065C801.083 169.568 801.363 170.25 801.364 170.961V196.658C801.363 197.369 801.083 198.051 800.586 198.554C800.088 199.056 799.413 199.339 798.708 199.34Z" fill="#E6E6E6"/>
<path d="M781.593 245.229H760.027C759.323 245.228 758.648 244.945 758.15 244.442C757.652 243.94 757.372 243.258 757.371 242.547V216.849C757.372 216.138 757.652 215.457 758.15 214.954C758.648 214.451 759.323 214.168 760.027 214.167H781.593C782.297 214.168 782.972 214.451 783.47 214.954C783.968 215.457 784.248 216.138 784.249 216.849V242.547C784.248 243.258 783.968 243.94 783.47 244.442C782.972 244.945 782.297 245.228 781.593 245.229Z" fill="#E6E6E6"/>
<path d="M708.409 235.693H686.843C686.139 235.693 685.464 235.41 684.966 234.907C684.468 234.404 684.188 233.723 684.187 233.012V207.314C684.188 206.603 684.468 205.921 684.966 205.419C685.464 204.916 686.139 204.633 686.843 204.632H708.409C709.113 204.633 709.788 204.916 710.286 205.419C710.784 205.921 711.064 206.603 711.064 207.314V233.012C711.064 233.723 710.784 234.404 710.286 234.907C709.788 235.41 709.113 235.693 708.409 235.693Z" fill="#FFD037"/>
<path d="M666.505 245.229H644.939C644.235 245.228 643.56 244.945 643.062 244.442C642.564 243.94 642.284 243.258 642.283 242.547V216.849C642.284 216.138 642.564 215.457 643.062 214.954C643.56 214.451 644.235 214.168 644.939 214.167H666.505C667.209 214.168 667.884 214.451 668.382 214.954C668.88 215.457 669.16 216.138 669.161 216.849V242.547C669.16 243.258 668.88 243.94 668.382 244.442C667.884 244.945 667.209 245.228 666.505 245.229V245.229Z" fill="#E6E6E6"/>
<path d="M576.205 285.754H554.639C553.935 285.753 553.26 285.47 552.762 284.968C552.264 284.465 551.984 283.783 551.983 283.072V257.375C551.984 256.664 552.264 255.982 552.762 255.479C553.26 254.976 553.935 254.694 554.639 254.693H576.205C576.909 254.694 577.584 254.976 578.082 255.479C578.58 255.982 578.86 256.664 578.861 257.375V283.072C578.86 283.783 578.58 284.465 578.082 284.968C577.584 285.47 576.909 285.753 576.205 285.754Z" fill="#E6E6E6"/>
<path d="M467.019 251.784H445.453C444.749 251.784 444.074 251.501 443.576 250.998C443.078 250.495 442.798 249.814 442.797 249.102V223.405C442.798 222.694 443.078 222.012 443.576 221.509C444.074 221.007 444.749 220.724 445.453 220.723H467.019C467.723 220.724 468.398 221.007 468.896 221.509C469.394 222.012 469.674 222.694 469.675 223.405V249.103C469.674 249.814 469.394 250.495 468.896 250.998C468.398 251.501 467.723 251.784 467.019 251.784V251.784Z" fill="#FFD037"/>
<path d="M527.809 204.703H506.243C505.539 204.702 504.864 204.42 504.366 203.917C503.868 203.414 503.588 202.732 503.587 202.021V176.324C503.588 175.613 503.868 174.931 504.366 174.428C504.864 173.926 505.539 173.643 506.243 173.642H527.809C528.513 173.643 529.188 173.926 529.686 174.428C530.184 174.931 530.464 175.613 530.464 176.324V202.021C530.464 202.732 530.184 203.414 529.686 203.917C529.188 204.42 528.513 204.702 527.809 204.703V204.703Z" fill="#E6E6E6"/>
<path d="M510.153 133.435H476.512C475.886 133.435 475.285 133.184 474.842 132.736C474.4 132.289 474.151 131.683 474.151 131.051C474.151 130.419 474.4 129.812 474.842 129.365C475.285 128.918 475.886 128.667 476.512 128.667H510.153C510.779 128.667 511.379 128.918 511.822 129.365C512.265 129.812 512.514 130.419 512.514 131.051C512.514 131.683 512.265 132.289 511.822 132.736C511.379 133.184 510.779 133.435 510.153 133.435Z" fill="#CCCCCC"/>
<path d="M605.174 133.435H571.533C570.907 133.435 570.307 133.184 569.864 132.736C569.421 132.289 569.172 131.683 569.172 131.051C569.172 130.419 569.421 129.812 569.864 129.365C570.307 128.918 570.907 128.667 571.533 128.667H605.174C605.8 128.667 606.401 128.918 606.844 129.365C607.286 129.812 607.535 130.419 607.535 131.051C607.535 131.683 607.286 132.289 606.844 132.736C606.401 133.184 605.8 133.435 605.174 133.435Z" fill="#CCCCCC"/>
<path d="M694.294 133.435H660.653C660.027 133.435 659.426 133.184 658.983 132.736C658.541 132.289 658.292 131.683 658.292 131.051C658.292 130.419 658.541 129.812 658.983 129.365C659.426 128.918 660.027 128.667 660.653 128.667H694.294C694.92 128.667 695.52 128.918 695.963 129.365C696.406 129.812 696.655 130.419 696.655 131.051C696.655 131.683 696.406 132.289 695.963 132.736C695.52 133.184 694.92 133.435 694.294 133.435Z" fill="#CCCCCC"/>
<path d="M777.511 133.435H743.87C743.243 133.435 742.643 133.184 742.2 132.736C741.758 132.289 741.509 131.683 741.509 131.051C741.509 130.419 741.758 129.812 742.2 129.365C742.643 128.918 743.243 128.667 743.87 128.667H777.511C778.137 128.667 778.737 128.918 779.18 129.365C779.623 129.812 779.871 130.419 779.871 131.051C779.871 131.683 779.623 132.289 779.18 132.736C778.737 133.184 778.137 133.435 777.511 133.435Z" fill="#CCCCCC"/>
<path d="M528.52 333.633C528.52 332.992 528.65 332.407 528.91 331.878C529.179 331.341 529.547 330.912 530.015 330.591C530.483 330.27 531.016 330.11 531.614 330.11C532.177 330.11 532.68 330.262 533.122 330.565C533.573 330.86 533.924 331.219 534.175 331.644V327.51H535.059V335.934C535.059 336.168 535.163 336.289 535.371 336.298V337C535.198 337.026 535.063 337.035 534.968 337.026C534.777 337.017 534.613 336.948 534.474 336.818C534.344 336.679 534.279 336.523 534.279 336.35V335.687C534.01 336.129 533.646 336.48 533.187 336.74C532.728 337 532.251 337.13 531.757 337.13C531.289 337.13 530.856 337.035 530.457 336.844C530.058 336.653 529.712 336.393 529.417 336.064C529.131 335.735 528.91 335.362 528.754 334.946C528.598 334.521 528.52 334.084 528.52 333.633ZM534.175 334.673V332.58C534.062 332.268 533.88 331.986 533.629 331.735C533.378 331.475 533.092 331.271 532.771 331.124C532.459 330.968 532.147 330.89 531.835 330.89C531.35 330.89 530.925 331.024 530.561 331.293C530.206 331.553 529.928 331.895 529.729 332.32C529.53 332.736 529.43 333.174 529.43 333.633C529.43 334.118 529.538 334.569 529.755 334.985C529.98 335.401 530.284 335.735 530.665 335.986C531.046 336.229 531.475 336.35 531.952 336.35C532.247 336.35 532.554 336.276 532.875 336.129C533.204 335.973 533.49 335.769 533.733 335.518C533.984 335.267 534.132 334.985 534.175 334.673ZM539.987 337.13C539.337 337.13 538.756 336.97 538.245 336.649C537.734 336.328 537.331 335.899 537.036 335.362C536.741 334.825 536.594 334.235 536.594 333.594C536.594 332.961 536.737 332.381 537.023 331.852C537.318 331.323 537.721 330.903 538.232 330.591C538.743 330.27 539.324 330.11 539.974 330.11C540.641 330.11 541.226 330.27 541.729 330.591C542.232 330.912 542.622 331.336 542.899 331.865C543.185 332.385 543.328 332.957 543.328 333.581C543.328 333.72 543.324 333.837 543.315 333.932H537.517C537.56 334.417 537.699 334.851 537.933 335.232C538.167 335.605 538.466 335.904 538.83 336.129C539.194 336.346 539.593 336.454 540.026 336.454C540.468 336.454 540.884 336.341 541.274 336.116C541.664 335.891 541.941 335.596 542.106 335.232L542.873 335.44C542.734 335.769 542.518 336.064 542.223 336.324C541.937 336.575 541.603 336.775 541.222 336.922C540.841 337.061 540.429 337.13 539.987 337.13ZM537.491 333.295H542.496C542.461 332.81 542.327 332.381 542.093 332.008C541.859 331.627 541.56 331.332 541.196 331.124C540.832 330.907 540.429 330.799 539.987 330.799C539.545 330.799 539.142 330.907 538.778 331.124C538.414 331.332 538.115 331.627 537.881 332.008C537.656 332.381 537.526 332.81 537.491 333.295ZM546.915 337.13C546.36 337.13 545.844 337.039 545.368 336.857C544.9 336.666 544.488 336.389 544.133 336.025L544.497 335.401C544.878 335.756 545.259 336.016 545.641 336.181C546.031 336.337 546.442 336.415 546.876 336.415C547.396 336.415 547.82 336.311 548.15 336.103C548.488 335.886 548.657 335.579 548.657 335.18C548.657 334.911 548.574 334.708 548.41 334.569C548.254 334.422 548.024 334.305 547.721 334.218C547.426 334.131 547.071 334.032 546.655 333.919C546.187 333.789 545.792 333.655 545.472 333.516C545.16 333.369 544.921 333.187 544.757 332.97C544.601 332.745 544.523 332.454 544.523 332.099C544.523 331.666 544.631 331.302 544.848 331.007C545.073 330.712 545.376 330.491 545.758 330.344C546.148 330.188 546.581 330.11 547.058 330.11C547.578 330.11 548.037 330.192 548.436 330.357C548.834 330.522 549.159 330.751 549.411 331.046L548.982 331.644C548.748 331.367 548.457 331.163 548.111 331.033C547.773 330.894 547.404 330.825 547.006 330.825C546.728 330.825 546.464 330.864 546.213 330.942C545.961 331.011 545.753 331.133 545.589 331.306C545.433 331.471 545.355 331.7 545.355 331.995C545.355 332.359 545.489 332.61 545.758 332.749C546.026 332.888 546.434 333.035 546.98 333.191C547.491 333.33 547.937 333.468 548.319 333.607C548.7 333.746 548.995 333.932 549.203 334.166C549.411 334.391 549.515 334.708 549.515 335.115C549.515 335.748 549.276 336.242 548.8 336.597C548.323 336.952 547.695 337.13 546.915 337.13ZM550.976 328.81V327.51H551.86V328.81H550.976ZM550.976 337V330.227H551.86V337H550.976ZM556.524 337.091C556.056 337.091 555.627 336.996 555.237 336.805C554.856 336.614 554.522 336.359 554.236 336.038C553.959 335.709 553.742 335.336 553.586 334.92C553.43 334.504 553.352 334.075 553.352 333.633C553.352 333 553.486 332.42 553.755 331.891C554.024 331.354 554.392 330.925 554.86 330.604C555.337 330.275 555.883 330.11 556.498 330.11C557.079 330.11 557.581 330.257 558.006 330.552C558.439 330.847 558.803 331.211 559.098 331.644V330.227H559.891V337.026C559.891 337.659 559.739 338.187 559.436 338.612C559.133 339.037 558.73 339.357 558.227 339.574C557.724 339.791 557.174 339.899 556.576 339.899C555.796 339.899 555.168 339.76 554.691 339.483C554.223 339.206 553.837 338.833 553.534 338.365L554.08 337.936C554.349 338.361 554.704 338.677 555.146 338.885C555.597 339.093 556.073 339.197 556.576 339.197C557.018 339.197 557.421 339.115 557.785 338.95C558.158 338.794 558.452 338.556 558.669 338.235C558.894 337.914 559.007 337.511 559.007 337.026V335.687C558.747 336.112 558.392 336.454 557.941 336.714C557.49 336.965 557.018 337.091 556.524 337.091ZM556.771 336.35C557.126 336.35 557.464 336.268 557.785 336.103C558.106 335.938 558.374 335.73 558.591 335.479C558.816 335.219 558.955 334.95 559.007 334.673V332.58C558.877 332.251 558.691 331.96 558.448 331.709C558.205 331.449 557.928 331.25 557.616 331.111C557.304 330.964 556.988 330.89 556.667 330.89C556.164 330.89 555.731 331.029 555.367 331.306C555.012 331.575 554.734 331.921 554.535 332.346C554.344 332.762 554.249 333.195 554.249 333.646C554.249 334.131 554.362 334.582 554.587 334.998C554.812 335.405 555.116 335.735 555.497 335.986C555.878 336.229 556.303 336.35 556.771 336.35ZM567.537 337H566.653V333.217C566.653 332.42 566.532 331.839 566.289 331.475C566.055 331.102 565.691 330.916 565.197 330.916C564.85 330.916 564.508 331.003 564.17 331.176C563.832 331.341 563.533 331.57 563.273 331.865C563.022 332.151 562.84 332.48 562.727 332.853V337H561.843V330.227H562.649V331.761C562.918 331.267 563.312 330.868 563.832 330.565C564.352 330.262 564.915 330.11 565.522 330.11C566.025 330.11 566.423 330.231 566.718 330.474C567.013 330.708 567.221 331.046 567.342 331.488C567.472 331.921 567.537 332.437 567.537 333.035V337ZM572.347 337.13C571.697 337.13 571.117 336.97 570.605 336.649C570.094 336.328 569.691 335.899 569.396 335.362C569.102 334.825 568.954 334.235 568.954 333.594C568.954 332.961 569.097 332.381 569.383 331.852C569.678 331.323 570.081 330.903 570.592 330.591C571.104 330.27 571.684 330.11 572.334 330.11C573.002 330.11 573.587 330.27 574.089 330.591C574.592 330.912 574.982 331.336 575.259 331.865C575.545 332.385 575.688 332.957 575.688 333.581C575.688 333.72 575.684 333.837 575.675 333.932H569.877C569.921 334.417 570.059 334.851 570.293 335.232C570.527 335.605 570.826 335.904 571.19 336.129C571.554 336.346 571.953 336.454 572.386 336.454C572.828 336.454 573.244 336.341 573.634 336.116C574.024 335.891 574.302 335.596 574.466 335.232L575.233 335.44C575.095 335.769 574.878 336.064 574.583 336.324C574.297 336.575 573.964 336.775 573.582 336.922C573.201 337.061 572.789 337.13 572.347 337.13ZM569.851 333.295H574.856C574.822 332.81 574.687 332.381 574.453 332.008C574.219 331.627 573.92 331.332 573.556 331.124C573.192 330.907 572.789 330.799 572.347 330.799C571.905 330.799 571.502 330.907 571.138 331.124C570.774 331.332 570.475 331.627 570.241 332.008C570.016 332.381 569.886 332.81 569.851 333.295ZM576.597 333.633C576.597 332.992 576.727 332.407 576.987 331.878C577.256 331.341 577.624 330.912 578.092 330.591C578.56 330.27 579.093 330.11 579.691 330.11C580.254 330.11 580.757 330.262 581.199 330.565C581.65 330.86 582.001 331.219 582.252 331.644V327.51H583.136V335.934C583.136 336.168 583.24 336.289 583.448 336.298V337C583.275 337.026 583.14 337.035 583.045 337.026C582.854 337.017 582.69 336.948 582.551 336.818C582.421 336.679 582.356 336.523 582.356 336.35V335.687C582.087 336.129 581.723 336.48 581.264 336.74C580.805 337 580.328 337.13 579.834 337.13C579.366 337.13 578.933 337.035 578.534 336.844C578.135 336.653 577.789 336.393 577.494 336.064C577.208 335.735 576.987 335.362 576.831 334.946C576.675 334.521 576.597 334.084 576.597 333.633ZM582.252 334.673V332.58C582.139 332.268 581.957 331.986 581.706 331.735C581.455 331.475 581.169 331.271 580.848 331.124C580.536 330.968 580.224 330.89 579.912 330.89C579.427 330.89 579.002 331.024 578.638 331.293C578.283 331.553 578.005 331.895 577.806 332.32C577.607 332.736 577.507 333.174 577.507 333.633C577.507 334.118 577.615 334.569 577.832 334.985C578.057 335.401 578.361 335.735 578.742 335.986C579.123 336.229 579.552 336.35 580.029 336.35C580.324 336.35 580.631 336.276 580.952 336.129C581.281 335.973 581.567 335.769 581.81 335.518C582.061 335.267 582.209 334.985 582.252 334.673ZM591.768 337.13C591.239 337.13 590.749 336.996 590.299 336.727C589.848 336.45 589.497 336.103 589.246 335.687V337H588.453V327.51H589.337V331.644C589.64 331.185 590.004 330.816 590.429 330.539C590.853 330.253 591.347 330.11 591.911 330.11C592.387 330.11 592.812 330.21 593.185 330.409C593.566 330.608 593.891 330.877 594.16 331.215C594.428 331.544 594.632 331.921 594.771 332.346C594.909 332.762 594.979 333.191 594.979 333.633C594.979 334.266 594.836 334.846 594.55 335.375C594.272 335.904 593.891 336.328 593.406 336.649C592.92 336.97 592.374 337.13 591.768 337.13ZM591.56 336.35C592.054 336.35 592.487 336.22 592.86 335.96C593.241 335.7 593.54 335.366 593.757 334.959C593.973 334.543 594.082 334.101 594.082 333.633C594.082 333.156 593.978 332.71 593.77 332.294C593.57 331.878 593.289 331.54 592.925 331.28C592.561 331.02 592.14 330.89 591.664 330.89C591.135 330.89 590.667 331.059 590.26 331.397C589.861 331.735 589.553 332.129 589.337 332.58V334.686C589.38 334.998 589.523 335.28 589.766 335.531C590.008 335.782 590.294 335.982 590.624 336.129C590.953 336.276 591.265 336.35 591.56 336.35ZM596.637 339.08C596.759 339.089 596.876 339.093 596.988 339.093C597.101 339.102 597.183 339.097 597.235 339.08C597.339 339.071 597.435 339.011 597.521 338.898C597.617 338.794 597.729 338.595 597.859 338.3C597.998 338.014 598.184 337.581 598.418 337L595.467 330.227H596.403L598.886 336.09L601.174 330.227H602.058L598.548 338.963C598.453 339.214 598.293 339.431 598.067 339.613C597.842 339.795 597.543 339.89 597.17 339.899C597.092 339.908 597.01 339.908 596.923 339.899C596.837 339.899 596.741 339.89 596.637 339.873V339.08ZM610.138 337.065C609.514 337.065 608.938 336.935 608.409 336.675C607.889 336.406 607.434 336.047 607.044 335.596C606.654 335.145 606.351 334.643 606.134 334.088C605.926 333.525 605.822 332.953 605.822 332.372C605.822 331.757 605.926 331.172 606.134 330.617C606.351 330.054 606.65 329.555 607.031 329.122C607.413 328.68 607.863 328.333 608.383 328.082C608.903 327.831 609.471 327.705 610.086 327.705C610.996 327.705 611.737 327.891 612.309 328.264C612.881 328.637 613.315 329.122 613.609 329.72L612.907 330.188C612.613 329.616 612.218 329.196 611.724 328.927C611.23 328.658 610.68 328.524 610.073 328.524C609.562 328.524 609.098 328.632 608.682 328.849C608.275 329.066 607.924 329.356 607.629 329.72C607.343 330.084 607.122 330.496 606.966 330.955C606.81 331.414 606.732 331.891 606.732 332.385C606.732 332.905 606.819 333.399 606.992 333.867C607.166 334.326 607.408 334.738 607.72 335.102C608.041 335.457 608.409 335.739 608.825 335.947C609.25 336.146 609.709 336.246 610.203 336.246C610.732 336.246 611.235 336.12 611.711 335.869C612.197 335.618 612.66 335.228 613.102 334.699V333.165H611.048V332.463H613.869V337H613.102V335.648C612.253 336.593 611.265 337.065 610.138 337.065ZM615.011 335.05C615.011 334.634 615.132 334.274 615.375 333.971C615.618 333.659 615.951 333.416 616.376 333.243C616.809 333.07 617.308 332.983 617.871 332.983C618.2 332.983 618.543 333.013 618.898 333.074C619.253 333.126 619.57 333.2 619.847 333.295V332.723C619.847 332.151 619.678 331.696 619.34 331.358C619.002 331.02 618.534 330.851 617.936 330.851C617.581 330.851 617.225 330.92 616.87 331.059C616.515 331.189 616.146 331.384 615.765 331.644L615.427 331.02C615.869 330.717 616.302 330.491 616.727 330.344C617.152 330.188 617.585 330.11 618.027 330.11C618.859 330.11 619.518 330.348 620.003 330.825C620.488 331.302 620.731 331.96 620.731 332.801V335.934C620.731 336.168 620.839 336.289 621.056 336.298V337C620.865 337.026 620.731 337.035 620.653 337.026C620.436 337.017 620.272 336.948 620.159 336.818C620.046 336.688 619.986 336.549 619.977 336.402L619.964 335.908C619.661 336.298 619.266 336.601 618.781 336.818C618.296 337.026 617.802 337.13 617.299 337.13C616.857 337.13 616.463 337.039 616.116 336.857C615.769 336.666 615.496 336.415 615.297 336.103C615.106 335.782 615.011 335.431 615.011 335.05ZM619.548 335.57C619.747 335.336 619.847 335.119 619.847 334.92V333.932C619.249 333.698 618.625 333.581 617.975 333.581C617.342 333.581 616.831 333.707 616.441 333.958C616.051 334.209 615.856 334.552 615.856 334.985C615.856 335.358 615.999 335.696 616.285 335.999C616.58 336.302 616.987 336.454 617.507 336.454C617.932 336.454 618.326 336.372 618.69 336.207C619.063 336.042 619.349 335.83 619.548 335.57ZM625.956 337.13C625.427 337.13 624.938 336.996 624.487 336.727C624.036 336.45 623.685 336.103 623.434 335.687V337H622.641V327.51H623.525V331.644C623.828 331.185 624.192 330.816 624.617 330.539C625.042 330.253 625.536 330.11 626.099 330.11C626.576 330.11 627 330.21 627.373 330.409C627.754 330.608 628.079 330.877 628.348 331.215C628.617 331.544 628.82 331.921 628.959 332.346C629.098 332.762 629.167 333.191 629.167 333.633C629.167 334.266 629.024 334.846 628.738 335.375C628.461 335.904 628.079 336.328 627.594 336.649C627.109 336.97 626.563 337.13 625.956 337.13ZM625.748 336.35C626.242 336.35 626.675 336.22 627.048 335.96C627.429 335.7 627.728 335.366 627.945 334.959C628.162 334.543 628.27 334.101 628.27 333.633C628.27 333.156 628.166 332.71 627.958 332.294C627.759 331.878 627.477 331.54 627.113 331.28C626.749 331.02 626.329 330.89 625.852 330.89C625.323 330.89 624.855 331.059 624.448 331.397C624.049 331.735 623.742 332.129 623.525 332.58V334.686C623.568 334.998 623.711 335.28 623.954 335.531C624.197 335.782 624.483 335.982 624.812 336.129C625.141 336.276 625.453 336.35 625.748 336.35ZM634.044 331.007C633.455 331.024 632.935 331.189 632.484 331.501C632.042 331.813 631.73 332.242 631.548 332.788V337H630.664V330.227H631.496V331.852C631.73 331.375 632.038 330.99 632.419 330.695C632.809 330.4 633.221 330.236 633.654 330.201C633.741 330.192 633.815 330.188 633.875 330.188C633.936 330.188 633.992 330.192 634.044 330.201V331.007ZM635.222 328.81V327.51H636.106V328.81H635.222ZM635.222 337V330.227H636.106V337H635.222ZM640.978 337.13C640.328 337.13 639.747 336.97 639.236 336.649C638.725 336.328 638.322 335.899 638.027 335.362C637.732 334.825 637.585 334.235 637.585 333.594C637.585 332.961 637.728 332.381 638.014 331.852C638.309 331.323 638.712 330.903 639.223 330.591C639.734 330.27 640.315 330.11 640.965 330.11C641.632 330.11 642.217 330.27 642.72 330.591C643.223 330.912 643.613 331.336 643.89 331.865C644.176 332.385 644.319 332.957 644.319 333.581C644.319 333.72 644.315 333.837 644.306 333.932H638.508C638.551 334.417 638.69 334.851 638.924 335.232C639.158 335.605 639.457 335.904 639.821 336.129C640.185 336.346 640.584 336.454 641.017 336.454C641.459 336.454 641.875 336.341 642.265 336.116C642.655 335.891 642.932 335.596 643.097 335.232L643.864 335.44C643.725 335.769 643.509 336.064 643.214 336.324C642.928 336.575 642.594 336.775 642.213 336.922C641.832 337.061 641.42 337.13 640.978 337.13ZM638.482 333.295H643.487C643.452 332.81 643.318 332.381 643.084 332.008C642.85 331.627 642.551 331.332 642.187 331.124C641.823 330.907 641.42 330.799 640.978 330.799C640.536 330.799 640.133 330.907 639.769 331.124C639.405 331.332 639.106 331.627 638.872 332.008C638.647 332.381 638.517 332.81 638.482 333.295ZM645.722 327.51H646.606V335.466C646.606 335.804 646.662 336.025 646.775 336.129C646.896 336.233 647.048 336.285 647.23 336.285C647.386 336.285 647.542 336.268 647.698 336.233C647.863 336.198 647.997 336.164 648.101 336.129L648.257 336.844C648.092 336.913 647.889 336.97 647.646 337.013C647.412 337.056 647.208 337.078 647.035 337.078C646.636 337.078 646.316 336.961 646.073 336.727C645.839 336.493 645.722 336.172 645.722 335.765V327.51ZM651.69 333.633C651.69 332.992 651.82 332.407 652.08 331.878C652.349 331.341 652.717 330.912 653.185 330.591C653.653 330.27 654.186 330.11 654.784 330.11C655.347 330.11 655.85 330.262 656.292 330.565C656.743 330.86 657.094 331.219 657.345 331.644V327.51H658.229V335.934C658.229 336.168 658.333 336.289 658.541 336.298V337C658.368 337.026 658.233 337.035 658.138 337.026C657.947 337.017 657.783 336.948 657.644 336.818C657.514 336.679 657.449 336.523 657.449 336.35V335.687C657.18 336.129 656.816 336.48 656.357 336.74C655.898 337 655.421 337.13 654.927 337.13C654.459 337.13 654.026 337.035 653.627 336.844C653.228 336.653 652.882 336.393 652.587 336.064C652.301 335.735 652.08 335.362 651.924 334.946C651.768 334.521 651.69 334.084 651.69 333.633ZM657.345 334.673V332.58C657.232 332.268 657.05 331.986 656.799 331.735C656.548 331.475 656.262 331.271 655.941 331.124C655.629 330.968 655.317 330.89 655.005 330.89C654.52 330.89 654.095 331.024 653.731 331.293C653.376 331.553 653.098 331.895 652.899 332.32C652.7 332.736 652.6 333.174 652.6 333.633C652.6 334.118 652.708 334.569 652.925 334.985C653.15 335.401 653.454 335.735 653.835 335.986C654.216 336.229 654.645 336.35 655.122 336.35C655.417 336.35 655.724 336.276 656.045 336.129C656.374 335.973 656.66 335.769 656.903 335.518C657.154 335.267 657.302 334.985 657.345 334.673ZM663.157 337.13C662.507 337.13 661.926 336.97 661.415 336.649C660.904 336.328 660.501 335.899 660.206 335.362C659.911 334.825 659.764 334.235 659.764 333.594C659.764 332.961 659.907 332.381 660.193 331.852C660.488 331.323 660.891 330.903 661.402 330.591C661.913 330.27 662.494 330.11 663.144 330.11C663.811 330.11 664.396 330.27 664.899 330.591C665.402 330.912 665.792 331.336 666.069 331.865C666.355 332.385 666.498 332.957 666.498 333.581C666.498 333.72 666.494 333.837 666.485 333.932H660.687C660.73 334.417 660.869 334.851 661.103 335.232C661.337 335.605 661.636 335.904 662 336.129C662.364 336.346 662.763 336.454 663.196 336.454C663.638 336.454 664.054 336.341 664.444 336.116C664.834 335.891 665.111 335.596 665.276 335.232L666.043 335.44C665.904 335.769 665.688 336.064 665.393 336.324C665.107 336.575 664.773 336.775 664.392 336.922C664.011 337.061 663.599 337.13 663.157 337.13ZM660.661 333.295H665.666C665.631 332.81 665.497 332.381 665.263 332.008C665.029 331.627 664.73 331.332 664.366 331.124C664.002 330.907 663.599 330.799 663.157 330.799C662.715 330.799 662.312 330.907 661.948 331.124C661.584 331.332 661.285 331.627 661.051 332.008C660.826 332.381 660.696 332.81 660.661 333.295ZM675.075 337.065C674.425 337.065 673.836 336.935 673.307 336.675C672.779 336.406 672.324 336.051 671.942 335.609C671.561 335.167 671.266 334.669 671.058 334.114C670.85 333.551 670.746 332.974 670.746 332.385C670.746 331.77 670.855 331.185 671.071 330.63C671.288 330.067 671.591 329.568 671.981 329.135C672.38 328.693 672.844 328.346 673.372 328.095C673.901 327.835 674.473 327.705 675.088 327.705C675.73 327.705 676.315 327.839 676.843 328.108C677.372 328.377 677.827 328.736 678.208 329.187C678.598 329.638 678.893 330.14 679.092 330.695C679.3 331.25 679.404 331.817 679.404 332.398C679.404 333.013 679.296 333.603 679.079 334.166C678.863 334.721 678.559 335.219 678.169 335.661C677.779 336.094 677.32 336.437 676.791 336.688C676.263 336.939 675.691 337.065 675.075 337.065ZM671.656 332.385C671.656 332.888 671.739 333.369 671.903 333.828C672.068 334.287 672.302 334.699 672.605 335.063C672.909 335.427 673.268 335.717 673.684 335.934C674.109 336.142 674.573 336.246 675.075 336.246C675.604 336.246 676.076 336.138 676.492 335.921C676.917 335.696 677.277 335.397 677.571 335.024C677.875 334.651 678.104 334.24 678.26 333.789C678.416 333.33 678.494 332.862 678.494 332.385C678.494 331.882 678.412 331.401 678.247 330.942C678.083 330.483 677.844 330.071 677.532 329.707C677.229 329.343 676.869 329.057 676.453 328.849C676.037 328.641 675.578 328.537 675.075 328.537C674.555 328.537 674.083 328.645 673.658 328.862C673.242 329.079 672.883 329.373 672.579 329.746C672.285 330.11 672.055 330.522 671.89 330.981C671.734 331.44 671.656 331.908 671.656 332.385ZM680.977 327.51H681.861V335.466C681.861 335.804 681.917 336.025 682.03 336.129C682.151 336.233 682.303 336.285 682.485 336.285C682.641 336.285 682.797 336.268 682.953 336.233C683.118 336.198 683.252 336.164 683.356 336.129L683.512 336.844C683.347 336.913 683.144 336.97 682.901 337.013C682.667 337.056 682.463 337.078 682.29 337.078C681.891 337.078 681.571 336.961 681.328 336.727C681.094 336.493 680.977 336.172 680.977 335.765V327.51ZM684.48 328.81V327.51H685.364V328.81H684.48ZM684.48 337V330.227H685.364V337H684.48ZM689.326 337L686.583 330.227H687.506L689.82 336.116L692.147 330.227H693.018L690.275 337H689.326ZM696.939 337.13C696.289 337.13 695.708 336.97 695.197 336.649C694.686 336.328 694.283 335.899 693.988 335.362C693.693 334.825 693.546 334.235 693.546 333.594C693.546 332.961 693.689 332.381 693.975 331.852C694.27 331.323 694.673 330.903 695.184 330.591C695.695 330.27 696.276 330.11 696.926 330.11C697.593 330.11 698.178 330.27 698.681 330.591C699.184 330.912 699.574 331.336 699.851 331.865C700.137 332.385 700.28 332.957 700.28 333.581C700.28 333.72 700.276 333.837 700.267 333.932H694.469C694.512 334.417 694.651 334.851 694.885 335.232C695.119 335.605 695.418 335.904 695.782 336.129C696.146 336.346 696.545 336.454 696.978 336.454C697.42 336.454 697.836 336.341 698.226 336.116C698.616 335.891 698.893 335.596 699.058 335.232L699.825 335.44C699.686 335.769 699.47 336.064 699.175 336.324C698.889 336.575 698.555 336.775 698.174 336.922C697.793 337.061 697.381 337.13 696.939 337.13ZM694.443 333.295H699.448C699.413 332.81 699.279 332.381 699.045 332.008C698.811 331.627 698.512 331.332 698.148 331.124C697.784 330.907 697.381 330.799 696.939 330.799C696.497 330.799 696.094 330.907 695.73 331.124C695.366 331.332 695.067 331.627 694.833 332.008C694.608 332.381 694.478 332.81 694.443 333.295ZM701.644 328.81V327.51H702.528V328.81H701.644ZM701.644 337V330.227H702.528V337H701.644ZM707.855 331.007C707.266 331.024 706.746 331.189 706.295 331.501C705.853 331.813 705.541 332.242 705.359 332.788V337H704.475V330.227H705.307V331.852C705.541 331.375 705.849 330.99 706.23 330.695C706.62 330.4 707.032 330.236 707.465 330.201C707.552 330.192 707.625 330.188 707.686 330.188C707.747 330.188 707.803 330.192 707.855 330.201V331.007ZM708.461 335.05C708.461 334.634 708.583 334.274 708.825 333.971C709.068 333.659 709.402 333.416 709.826 333.243C710.26 333.07 710.758 332.983 711.321 332.983C711.651 332.983 711.993 333.013 712.348 333.074C712.704 333.126 713.02 333.2 713.297 333.295V332.723C713.297 332.151 713.128 331.696 712.79 331.358C712.452 331.02 711.984 330.851 711.386 330.851C711.031 330.851 710.676 330.92 710.32 331.059C709.965 331.189 709.597 331.384 709.215 331.644L708.877 331.02C709.319 330.717 709.753 330.491 710.177 330.344C710.602 330.188 711.035 330.11 711.477 330.11C712.309 330.11 712.968 330.348 713.453 330.825C713.939 331.302 714.181 331.96 714.181 332.801V335.934C714.181 336.168 714.29 336.289 714.506 336.298V337C714.316 337.026 714.181 337.035 714.103 337.026C713.887 337.017 713.722 336.948 713.609 336.818C713.497 336.688 713.436 336.549 713.427 336.402L713.414 335.908C713.111 336.298 712.717 336.601 712.231 336.818C711.746 337.026 711.252 337.13 710.749 337.13C710.307 337.13 709.913 337.039 709.566 336.857C709.22 336.666 708.947 336.415 708.747 336.103C708.557 335.782 708.461 335.431 708.461 335.05ZM712.998 335.57C713.198 335.336 713.297 335.119 713.297 334.92V333.932C712.699 333.698 712.075 333.581 711.425 333.581C710.793 333.581 710.281 333.707 709.891 333.958C709.501 334.209 709.306 334.552 709.306 334.985C709.306 335.358 709.449 335.696 709.735 335.999C710.03 336.302 710.437 336.454 710.957 336.454C711.382 336.454 711.776 336.372 712.14 336.207C712.513 336.042 712.799 335.83 712.998 335.57Z" fill="black"/>
</svg>
