<svg width="840" height="777" viewBox="0 0 840 777" fill="none" xmlns="http://www.w3.org/2000/svg">
<path d="M125.012 246.563C172.407 246.563 210.828 191.592 210.828 123.782C210.828 55.9712 172.407 1 125.012 1C77.6175 1 39.1963 55.9712 39.1963 123.782C39.1963 191.592 77.6175 246.563 125.012 246.563Z" stroke="#D3D3D3" stroke-miterlimit="10" stroke-dasharray="12.14 12.14"/>
<path d="M174.546 98.1729C157.965 108.496 141.523 121.201 129.938 141.052C118.352 160.904 112.525 189.391 119.532 213.312C128.828 245.173 158.243 263.735 158.381 298.276C158.451 322.991 142.495 341.85 126.4 350.883C110.305 359.915 92.4758 363.091 77.8378 376.293C55.7074 396.144 45.3706 434.557 41.1388 471.381C36.7682 509.596 38.5025 553.17 57.4417 580.962C80.9597 615.404 119.809 611.533 153.109 604.188C197.509 594.362 241.7 582.848 285.961 571.334C382.877 546.023 479.793 520.812 576.64 495.501C587.046 492.821 597.868 489.843 606.262 480.712C623.051 462.647 624.438 425.425 614.726 398.923C605.014 372.322 586.976 354.257 569.078 338.674C551.179 323.091 532.24 308.301 518.851 285.174C505.461 262.047 498.801 227.903 508.93 201.699C517.533 179.465 535.986 167.554 544.034 144.923C554.648 115.047 542.438 76.9318 523.152 57.8743C503.796 38.6184 262.027 43.3827 174.546 98.1729Z" fill="#F7F7F7"/>
<path d="M678.481 776.4H9.01867C4.02371 776.4 0 770.544 0 763.497V686.572C0 679.425 4.09309 673.668 9.01867 673.668H678.481C683.476 673.668 687.5 679.525 687.5 686.572V763.497C687.5 770.544 683.407 776.4 678.481 776.4Z" fill="#F2F2F2"/>
<path d="M385.954 667.336H132.497C128.402 667.336 125 663.795 125 659.369V221.968C125 217.615 128.332 214 132.497 214H385.954C390.05 214 393.452 217.541 393.452 221.968V659.369C393.452 663.795 390.119 667.336 385.954 667.336Z" fill="#C5C5C5"/>
<path d="M385.943 658.746H132.879C128.788 658.746 125.391 655.275 125.391 650.937V222.248C125.391 217.982 128.719 214.439 132.879 214.439H386.012C390.102 214.439 393.5 217.91 393.5 222.248V650.937C393.43 655.275 390.102 658.746 385.943 658.746Z" stroke="#464647" stroke-miterlimit="10"/>
<path d="M368.391 245.427H150.061V635.983H368.391V245.427Z" fill="#ACACAC"/>
<path d="M361.865 250.666H156.656V316.766H361.865V250.666Z" fill="#464647"/>
<path d="M342.288 281.429H171.859C165.403 281.429 160.196 275.822 160.196 269.035V268.961C160.196 262.1 165.472 256.567 171.859 256.567H342.288C348.744 256.567 353.951 262.174 353.951 268.961V269.035C353.951 275.822 348.744 281.429 342.288 281.429Z" fill="#F7F7F7"/>
<path d="M174.151 263.354H239.129C242.044 263.354 244.405 265.863 244.405 268.961C244.405 272.06 242.044 274.568 239.129 274.568H174.151C171.235 274.568 168.875 272.06 168.875 268.961C168.875 265.863 171.235 263.354 174.151 263.354Z" fill="#ACACAC"/>
<path d="M175.608 272.576C177.486 272.576 179.009 270.958 179.009 268.961C179.009 266.965 177.486 265.346 175.608 265.346C173.729 265.346 172.206 266.965 172.206 268.961C172.206 270.958 173.729 272.576 175.608 272.576Z" fill="#C9FF55"/>
<path d="M183.591 272.576C185.47 272.576 186.993 270.958 186.993 268.961C186.993 266.965 185.47 265.346 183.591 265.346C181.712 265.346 180.189 266.965 180.189 268.961C180.189 270.958 181.712 272.576 183.591 272.576Z" fill="#C9FF55"/>
<path d="M191.506 272.576C193.384 272.576 194.907 270.958 194.907 268.961C194.907 266.965 193.384 265.346 191.506 265.346C189.627 265.346 188.104 266.965 188.104 268.961C188.104 270.958 189.627 272.576 191.506 272.576Z" fill="#C9FF55"/>
<path d="M199.489 272.576C201.368 272.576 202.891 270.958 202.891 268.961C202.891 266.965 201.368 265.346 199.489 265.346C197.61 265.346 196.087 266.965 196.087 268.961C196.087 270.958 197.61 272.576 199.489 272.576Z" fill="#C9FF55"/>
<path d="M207.472 272.576C209.351 272.576 210.874 270.958 210.874 268.961C210.874 266.965 209.351 265.346 207.472 265.346C205.594 265.346 204.071 266.965 204.071 268.961C204.071 270.958 205.594 272.576 207.472 272.576Z" fill="#C9FF55"/>
<path d="M215.456 272.576C217.334 272.576 218.857 270.958 218.857 268.961C218.857 266.965 217.334 265.346 215.456 265.346C213.577 265.346 212.054 266.965 212.054 268.961C212.054 270.958 213.577 272.576 215.456 272.576Z" fill="#C9FF55"/>
<path d="M342.288 311.086H171.859C165.403 311.086 160.196 305.479 160.196 298.692V298.618C160.196 291.757 165.472 286.224 171.859 286.224H342.288C348.744 286.224 353.951 291.831 353.951 298.618V298.692C353.951 305.553 348.744 311.086 342.288 311.086Z" fill="#F7F7F7"/>
<path d="M174.151 293.011H239.129C242.044 293.011 244.405 295.52 244.405 298.618C244.405 301.716 242.044 304.225 239.129 304.225H174.151C171.235 304.225 168.875 301.716 168.875 298.618C168.875 295.52 171.235 293.011 174.151 293.011Z" fill="#ACACAC"/>
<path d="M175.608 302.233C177.486 302.233 179.009 300.614 179.009 298.618C179.009 296.621 177.486 295.003 175.608 295.003C173.729 295.003 172.206 296.621 172.206 298.618C172.206 300.614 173.729 302.233 175.608 302.233Z" fill="#C9FF55"/>
<path d="M183.591 302.233C185.47 302.233 186.993 300.614 186.993 298.618C186.993 296.621 185.47 295.003 183.591 295.003C181.712 295.003 180.189 296.621 180.189 298.618C180.189 300.614 181.712 302.233 183.591 302.233Z" fill="#C9FF55"/>
<path d="M191.506 302.233C193.384 302.233 194.907 300.614 194.907 298.618C194.907 296.621 193.384 295.003 191.506 295.003C189.627 295.003 188.104 296.621 188.104 298.618C188.104 300.614 189.627 302.233 191.506 302.233Z" fill="#C9FF55"/>
<path d="M199.489 302.233C201.368 302.233 202.891 300.614 202.891 298.618C202.891 296.621 201.368 295.003 199.489 295.003C197.61 295.003 196.087 296.621 196.087 298.618C196.087 300.614 197.61 302.233 199.489 302.233Z" fill="#C9FF55"/>
<path d="M207.472 302.233C209.351 302.233 210.874 300.614 210.874 298.618C210.874 296.621 209.351 295.003 207.472 295.003C205.594 295.003 204.071 296.621 204.071 298.618C204.071 300.614 205.594 302.233 207.472 302.233Z" fill="#C9FF55"/>
<path d="M215.456 302.233C217.334 302.233 218.857 300.614 218.857 298.618C218.857 296.621 217.334 295.003 215.456 295.003C213.577 295.003 212.054 296.621 212.054 298.618C212.054 300.614 213.577 302.233 215.456 302.233Z" fill="#C9FF55"/>
<path d="M361.865 326.504H156.656V392.605H361.865V326.504Z" fill="#464647"/>
<path d="M342.288 357.194H171.859C165.403 357.194 160.196 351.587 160.196 344.8V344.726C160.196 337.866 165.472 332.333 171.859 332.333H342.288C348.744 332.333 353.951 337.939 353.951 344.726V344.8C353.951 351.661 348.744 357.194 342.288 357.194Z" fill="#F7F7F7"/>
<path d="M174.151 339.12H239.129C242.044 339.12 244.405 341.628 244.405 344.726C244.405 347.825 242.044 350.333 239.129 350.333H174.151C171.235 350.333 168.875 347.825 168.875 344.726C168.875 341.628 171.235 339.12 174.151 339.12Z" fill="#ACACAC"/>
<path d="M175.608 348.341C177.486 348.341 179.009 346.722 179.009 344.726C179.009 342.729 177.486 341.111 175.608 341.111C173.729 341.111 172.206 342.729 172.206 344.726C172.206 346.722 173.729 348.341 175.608 348.341Z" fill="#C9FF55"/>
<path d="M183.591 348.341C185.47 348.341 186.993 346.722 186.993 344.726C186.993 342.729 185.47 341.111 183.591 341.111C181.712 341.111 180.189 342.729 180.189 344.726C180.189 346.722 181.712 348.341 183.591 348.341Z" fill="#C9FF55"/>
<path d="M191.506 348.341C193.384 348.341 194.907 346.722 194.907 344.726C194.907 342.729 193.384 341.111 191.506 341.111C189.627 341.111 188.104 342.729 188.104 344.726C188.104 346.722 189.627 348.341 191.506 348.341Z" fill="#C9FF55"/>
<path d="M199.489 348.341C201.368 348.341 202.891 346.722 202.891 344.726C202.891 342.729 201.368 341.111 199.489 341.111C197.61 341.111 196.087 342.729 196.087 344.726C196.087 346.722 197.61 348.341 199.489 348.341Z" fill="#C9FF55"/>
<path d="M207.472 348.341C209.351 348.341 210.874 346.722 210.874 344.726C210.874 342.729 209.351 341.111 207.472 341.111C205.594 341.111 204.071 342.729 204.071 344.726C204.071 346.722 205.594 348.341 207.472 348.341Z" fill="#C9FF55"/>
<path d="M215.456 348.341C217.334 348.341 218.857 346.722 218.857 344.726C218.857 342.729 217.334 341.111 215.456 341.111C213.577 341.111 212.054 342.729 212.054 344.726C212.054 346.722 213.577 348.341 215.456 348.341Z" fill="#C9FF55"/>
<path d="M342.288 386.925H171.859C165.403 386.925 160.196 381.318 160.196 374.531V374.457C160.196 367.596 165.472 362.063 171.859 362.063H342.288C348.744 362.063 353.951 367.67 353.951 374.457V374.531C353.951 381.318 348.744 386.925 342.288 386.925Z" fill="#F7F7F7"/>
<path d="M174.151 368.776H239.129C242.044 368.776 244.405 371.285 244.405 374.383C244.405 377.482 242.044 379.99 239.129 379.99H174.151C171.235 379.99 168.875 377.482 168.875 374.383C168.875 371.358 171.235 368.776 174.151 368.776Z" fill="#ACACAC"/>
<path d="M175.608 378.072C177.486 378.072 179.009 376.453 179.009 374.457C179.009 372.46 177.486 370.842 175.608 370.842C173.729 370.842 172.206 372.46 172.206 374.457C172.206 376.453 173.729 378.072 175.608 378.072Z" fill="#C9FF55"/>
<path d="M183.591 378.072C185.47 378.072 186.993 376.453 186.993 374.457C186.993 372.46 185.47 370.842 183.591 370.842C181.712 370.842 180.189 372.46 180.189 374.457C180.189 376.453 181.712 378.072 183.591 378.072Z" fill="#C9FF55"/>
<path d="M191.506 378.072C193.384 378.072 194.907 376.453 194.907 374.457C194.907 372.46 193.384 370.842 191.506 370.842C189.627 370.842 188.104 372.46 188.104 374.457C188.104 376.453 189.627 378.072 191.506 378.072Z" fill="#C9FF55"/>
<path d="M199.489 378.072C201.368 378.072 202.891 376.453 202.891 374.457C202.891 372.46 201.368 370.842 199.489 370.842C197.61 370.842 196.087 372.46 196.087 374.457C196.087 376.453 197.61 378.072 199.489 378.072Z" fill="#C9FF55"/>
<path d="M207.472 378.072C209.351 378.072 210.874 376.453 210.874 374.457C210.874 372.46 209.351 370.842 207.472 370.842C205.594 370.842 204.071 372.46 204.071 374.457C204.071 376.453 205.594 378.072 207.472 378.072Z" fill="#C9FF55"/>
<path d="M215.456 378.072C217.334 378.072 218.857 376.453 218.857 374.457C218.857 372.46 217.334 370.842 215.456 370.842C213.577 370.842 212.054 372.46 212.054 374.457C212.054 376.453 213.577 378.072 215.456 378.072Z" fill="#C9FF55"/>
<path d="M361.865 402.27H156.656V468.37H361.865V402.27Z" fill="#464647"/>
<path d="M342.288 433.032H171.859C165.403 433.032 160.196 427.426 160.196 420.639V420.565C160.196 413.704 165.472 408.171 171.859 408.171H342.288C348.744 408.171 353.951 413.778 353.951 420.565V420.639C353.951 427.426 348.744 433.032 342.288 433.032Z" fill="#F7F7F7"/>
<path d="M174.151 414.885H239.129C242.044 414.885 244.405 417.393 244.405 420.492C244.405 423.59 242.044 426.098 239.129 426.098H174.151C171.235 426.098 168.875 423.59 168.875 420.492C168.875 417.467 171.235 414.885 174.151 414.885Z" fill="#ACACAC"/>
<path d="M175.608 424.18C177.486 424.18 179.009 422.562 179.009 420.565C179.009 418.569 177.486 416.95 175.608 416.95C173.729 416.95 172.206 418.569 172.206 420.565C172.206 422.562 173.729 424.18 175.608 424.18Z" fill="#C9FF55"/>
<path d="M183.591 424.18C185.47 424.18 186.993 422.562 186.993 420.565C186.993 418.569 185.47 416.95 183.591 416.95C181.712 416.95 180.189 418.569 180.189 420.565C180.189 422.562 181.712 424.18 183.591 424.18Z" fill="#C9FF55"/>
<path d="M191.506 424.18C193.384 424.18 194.907 422.562 194.907 420.565C194.907 418.569 193.384 416.95 191.506 416.95C189.627 416.95 188.104 418.569 188.104 420.565C188.104 422.562 189.627 424.18 191.506 424.18Z" fill="#C9FF55"/>
<path d="M199.489 424.18C201.368 424.18 202.891 422.562 202.891 420.565C202.891 418.569 201.368 416.95 199.489 416.95C197.61 416.95 196.087 418.569 196.087 420.565C196.087 422.562 197.61 424.18 199.489 424.18Z" fill="#C9FF55"/>
<path d="M207.472 424.18C209.351 424.18 210.874 422.562 210.874 420.565C210.874 418.569 209.351 416.95 207.472 416.95C205.594 416.95 204.071 418.569 204.071 420.565C204.071 422.562 205.594 424.18 207.472 424.18Z" fill="#C9FF55"/>
<path d="M215.456 424.18C217.334 424.18 218.857 422.562 218.857 420.565C218.857 418.569 217.334 416.95 215.456 416.95C213.577 416.95 212.054 418.569 212.054 420.565C212.054 422.562 213.577 424.18 215.456 424.18Z" fill="#C9FF55"/>
<path d="M342.288 462.69H171.859C165.403 462.69 160.196 457.083 160.196 450.296V450.222C160.196 443.361 165.472 437.828 171.859 437.828H342.288C348.744 437.828 353.951 443.435 353.951 450.222V450.296C353.951 457.083 348.744 462.69 342.288 462.69Z" fill="#F7F7F7"/>
<path d="M174.151 444.615H239.129C242.044 444.615 244.405 447.124 244.405 450.222C244.405 453.321 242.044 455.829 239.129 455.829H174.151C171.235 455.829 168.875 453.321 168.875 450.222C168.875 447.124 171.235 444.615 174.151 444.615Z" fill="#ACACAC"/>
<path d="M175.608 453.837C177.486 453.837 179.009 452.219 179.009 450.222C179.009 448.226 177.486 446.607 175.608 446.607C173.729 446.607 172.206 448.226 172.206 450.222C172.206 452.219 173.729 453.837 175.608 453.837Z" fill="#C9FF55"/>
<path d="M183.591 453.837C185.47 453.837 186.993 452.219 186.993 450.222C186.993 448.226 185.47 446.607 183.591 446.607C181.712 446.607 180.189 448.226 180.189 450.222C180.189 452.219 181.712 453.837 183.591 453.837Z" fill="#C9FF55"/>
<path d="M191.506 453.837C193.384 453.837 194.907 452.219 194.907 450.222C194.907 448.226 193.384 446.607 191.506 446.607C189.627 446.607 188.104 448.226 188.104 450.222C188.104 452.219 189.627 453.837 191.506 453.837Z" fill="#C9FF55"/>
<path d="M199.489 453.837C201.368 453.837 202.891 452.219 202.891 450.222C202.891 448.226 201.368 446.607 199.489 446.607C197.61 446.607 196.087 448.226 196.087 450.222C196.087 452.219 197.61 453.837 199.489 453.837Z" fill="#C9FF55"/>
<path d="M207.472 453.837C209.351 453.837 210.874 452.219 210.874 450.222C210.874 448.226 209.351 446.607 207.472 446.607C205.594 446.607 204.071 448.226 204.071 450.222C204.071 452.219 205.594 453.837 207.472 453.837Z" fill="#C9FF55"/>
<path d="M215.456 453.837C217.334 453.837 218.857 452.219 218.857 450.222C218.857 448.226 217.334 446.607 215.456 446.607C213.577 446.607 212.054 448.226 212.054 450.222C212.054 452.219 213.577 453.837 215.456 453.837Z" fill="#C9FF55"/>
<path d="M361.865 478.034H156.656V544.135H361.865V478.034Z" fill="#464647"/>
<path d="M342.288 508.798H171.859C165.403 508.798 160.196 503.191 160.196 496.404V496.33C160.196 489.469 165.472 483.936 171.859 483.936H342.288C348.744 483.936 353.951 489.543 353.951 496.33V496.404C353.951 503.191 348.744 508.798 342.288 508.798Z" fill="#F7F7F7"/>
<path d="M174.151 490.723H239.129C242.044 490.723 244.405 493.231 244.405 496.33C244.405 499.428 242.044 501.937 239.129 501.937H174.151C171.235 501.937 168.875 499.428 168.875 496.33C168.875 493.231 171.235 490.723 174.151 490.723Z" fill="#ACACAC"/>
<path d="M175.608 499.945C177.486 499.945 179.009 498.327 179.009 496.33C179.009 494.334 177.486 492.715 175.608 492.715C173.729 492.715 172.206 494.334 172.206 496.33C172.206 498.327 173.729 499.945 175.608 499.945Z" fill="#C9FF55"/>
<path d="M183.591 499.945C185.47 499.945 186.993 498.327 186.993 496.33C186.993 494.334 185.47 492.715 183.591 492.715C181.712 492.715 180.189 494.334 180.189 496.33C180.189 498.327 181.712 499.945 183.591 499.945Z" fill="#C9FF55"/>
<path d="M191.506 499.945C193.384 499.945 194.907 498.327 194.907 496.33C194.907 494.334 193.384 492.715 191.506 492.715C189.627 492.715 188.104 494.334 188.104 496.33C188.104 498.327 189.627 499.945 191.506 499.945Z" fill="#C9FF55"/>
<path d="M199.489 499.945C201.368 499.945 202.891 498.327 202.891 496.33C202.891 494.334 201.368 492.715 199.489 492.715C197.61 492.715 196.087 494.334 196.087 496.33C196.087 498.327 197.61 499.945 199.489 499.945Z" fill="#C9FF55"/>
<path d="M207.472 499.945C209.351 499.945 210.874 498.327 210.874 496.33C210.874 494.334 209.351 492.715 207.472 492.715C205.594 492.715 204.071 494.334 204.071 496.33C204.071 498.327 205.594 499.945 207.472 499.945Z" fill="#C9FF55"/>
<path d="M215.456 499.945C217.334 499.945 218.857 498.327 218.857 496.33C218.857 494.334 217.334 492.715 215.456 492.715C213.577 492.715 212.054 494.334 212.054 496.33C212.054 498.327 213.577 499.945 215.456 499.945Z" fill="#C9FF55"/>
<path d="M342.288 538.529H171.859C165.403 538.529 160.196 532.922 160.196 526.135V526.061C160.196 519.2 165.472 513.667 171.859 513.667H342.288C348.744 513.667 353.951 519.274 353.951 526.061V526.135C353.951 532.922 348.744 538.529 342.288 538.529Z" fill="#F7F7F7"/>
<path d="M174.151 520.381H239.129C242.044 520.381 244.405 522.889 244.405 525.988C244.405 529.086 242.044 531.594 239.129 531.594H174.151C171.235 531.594 168.875 529.086 168.875 525.988C168.875 522.963 171.235 520.381 174.151 520.381Z" fill="#ACACAC"/>
<path d="M175.608 529.676C177.486 529.676 179.009 528.057 179.009 526.061C179.009 524.064 177.486 522.446 175.608 522.446C173.729 522.446 172.206 524.064 172.206 526.061C172.206 528.057 173.729 529.676 175.608 529.676Z" fill="#C9FF55"/>
<path d="M183.591 529.676C185.47 529.676 186.993 528.057 186.993 526.061C186.993 524.064 185.47 522.446 183.591 522.446C181.712 522.446 180.189 524.064 180.189 526.061C180.189 528.057 181.712 529.676 183.591 529.676Z" fill="#C9FF55"/>
<path d="M191.506 529.676C193.384 529.676 194.907 528.057 194.907 526.061C194.907 524.064 193.384 522.446 191.506 522.446C189.627 522.446 188.104 524.064 188.104 526.061C188.104 528.057 189.627 529.676 191.506 529.676Z" fill="#C9FF55"/>
<path d="M199.489 529.676C201.368 529.676 202.891 528.057 202.891 526.061C202.891 524.064 201.368 522.446 199.489 522.446C197.61 522.446 196.087 524.064 196.087 526.061C196.087 528.057 197.61 529.676 199.489 529.676Z" fill="#C9FF55"/>
<path d="M207.472 529.676C209.351 529.676 210.874 528.057 210.874 526.061C210.874 524.064 209.351 522.446 207.472 522.446C205.594 522.446 204.071 524.064 204.071 526.061C204.071 528.057 205.594 529.676 207.472 529.676Z" fill="#C9FF55"/>
<path d="M215.456 529.676C217.334 529.676 218.857 528.057 218.857 526.061C218.857 524.064 217.334 522.446 215.456 522.446C213.577 522.446 212.054 524.064 212.054 526.061C212.054 528.057 213.577 529.676 215.456 529.676Z" fill="#C9FF55"/>
<path d="M361.865 553.874H156.656V619.974H361.865V553.874Z" fill="#464647"/>
<path d="M342.288 584.637H171.859C165.403 584.637 160.196 579.03 160.196 572.243V572.169C160.196 565.308 165.472 559.775 171.859 559.775H342.288C348.744 559.775 353.951 565.382 353.951 572.169V572.243C353.951 579.03 348.744 584.637 342.288 584.637Z" fill="#F7F7F7"/>
<path d="M174.151 566.488H239.129C242.044 566.488 244.405 568.997 244.405 572.095C244.405 575.194 242.044 577.702 239.129 577.702H174.151C171.235 577.702 168.875 575.194 168.875 572.095C168.875 569.07 171.235 566.488 174.151 566.488Z" fill="#ACACAC"/>
<path d="M175.608 575.783C177.486 575.783 179.009 574.165 179.009 572.169C179.009 570.172 177.486 568.554 175.608 568.554C173.729 568.554 172.206 570.172 172.206 572.169C172.206 574.165 173.729 575.783 175.608 575.783Z" fill="#C9FF55"/>
<path d="M183.591 575.783C185.47 575.783 186.993 574.165 186.993 572.169C186.993 570.172 185.47 568.554 183.591 568.554C181.712 568.554 180.189 570.172 180.189 572.169C180.189 574.165 181.712 575.783 183.591 575.783Z" fill="#C9FF55"/>
<path d="M191.506 575.783C193.384 575.783 194.907 574.165 194.907 572.169C194.907 570.172 193.384 568.554 191.506 568.554C189.627 568.554 188.104 570.172 188.104 572.169C188.104 574.165 189.627 575.783 191.506 575.783Z" fill="#C9FF55"/>
<path d="M199.489 575.783C201.368 575.783 202.891 574.165 202.891 572.169C202.891 570.172 201.368 568.554 199.489 568.554C197.61 568.554 196.087 570.172 196.087 572.169C196.087 574.165 197.61 575.783 199.489 575.783Z" fill="#C9FF55"/>
<path d="M207.472 575.783C209.351 575.783 210.874 574.165 210.874 572.169C210.874 570.172 209.351 568.554 207.472 568.554C205.594 568.554 204.071 570.172 204.071 572.169C204.071 574.165 205.594 575.783 207.472 575.783Z" fill="#C9FF55"/>
<path d="M215.456 575.783C217.334 575.783 218.857 574.165 218.857 572.169C218.857 570.172 217.334 568.554 215.456 568.554C213.577 568.554 212.054 570.172 212.054 572.169C212.054 574.165 213.577 575.783 215.456 575.783Z" fill="#C9FF55"/>
<path d="M342.288 614.293H171.859C165.403 614.293 160.196 608.686 160.196 601.899V601.826C160.196 594.965 165.472 589.432 171.859 589.432H342.288C348.744 589.432 353.951 595.038 353.951 601.826V601.899C353.951 608.686 348.744 614.293 342.288 614.293Z" fill="#F7F7F7"/>
<path d="M174.151 596.22H239.129C242.044 596.22 244.405 598.728 244.405 601.827C244.405 604.925 242.044 607.433 239.129 607.433H174.151C171.235 607.433 168.875 604.925 168.875 601.827C168.875 598.728 171.235 596.22 174.151 596.22Z" fill="#ACACAC"/>
<path d="M175.608 605.441C177.486 605.441 179.009 603.823 179.009 601.826C179.009 599.83 177.486 598.211 175.608 598.211C173.729 598.211 172.206 599.83 172.206 601.826C172.206 603.823 173.729 605.441 175.608 605.441Z" fill="#C9FF55"/>
<path d="M183.591 605.441C185.47 605.441 186.993 603.823 186.993 601.826C186.993 599.83 185.47 598.211 183.591 598.211C181.712 598.211 180.189 599.83 180.189 601.826C180.189 603.823 181.712 605.441 183.591 605.441Z" fill="#C9FF55"/>
<path d="M191.506 605.441C193.384 605.441 194.907 603.823 194.907 601.826C194.907 599.83 193.384 598.211 191.506 598.211C189.627 598.211 188.104 599.83 188.104 601.826C188.104 603.823 189.627 605.441 191.506 605.441Z" fill="#C9FF55"/>
<path d="M199.489 605.441C201.368 605.441 202.891 603.823 202.891 601.826C202.891 599.83 201.368 598.211 199.489 598.211C197.61 598.211 196.087 599.83 196.087 601.826C196.087 603.823 197.61 605.441 199.489 605.441Z" fill="#C9FF55"/>
<path d="M207.472 605.441C209.351 605.441 210.874 603.823 210.874 601.826C210.874 599.83 209.351 598.211 207.472 598.211C205.594 598.211 204.071 599.83 204.071 601.826C204.071 603.823 205.594 605.441 207.472 605.441Z" fill="#C9FF55"/>
<path d="M215.456 605.441C217.334 605.441 218.857 603.823 218.857 601.826C218.857 599.83 217.334 598.211 215.456 598.211C213.577 598.211 212.054 599.83 212.054 601.826C212.054 603.823 213.577 605.441 215.456 605.441Z" fill="#C9FF55"/>
<path d="M840 278.999V488.675C840 494.912 831.889 500 821.882 500H438.483C428.476 500 420.371 494.928 420.371 488.675V278.999C420.371 272.75 428.476 266.384 438.483 266.384L821.833 267.075C831.824 267.075 840 272.75 840 278.999Z" fill="white"/>
<path d="M827.415 264H431.394C428.108 264.004 424.958 265.323 422.634 267.67C420.311 270.016 419.004 273.197 419 276.515V487.485C419.004 490.803 420.311 493.984 422.634 496.33C424.958 498.677 428.108 499.996 431.394 500H827.415C830.701 499.996 833.851 498.677 836.175 496.33C838.498 493.984 839.805 490.803 839.809 487.485V276.515C839.805 273.197 838.498 270.016 836.175 267.67C833.851 265.323 830.701 264.004 827.415 264ZM838.629 487.485C838.626 490.487 837.444 493.366 835.341 495.489C833.239 497.612 830.388 498.805 827.415 498.808H431.394C428.421 498.805 425.57 497.612 423.468 495.489C421.365 493.366 420.183 490.487 420.18 487.485V276.515C420.183 273.513 421.365 270.634 423.468 268.511C425.57 266.388 428.421 265.195 431.394 265.192H827.415C830.388 265.195 833.239 266.388 835.341 268.511C837.444 270.634 838.626 273.513 838.629 276.515V487.485Z" fill="#3F3D56"/>
<path d="M807.938 298.19H450.87C450.714 298.19 450.564 298.127 450.453 298.015C450.342 297.904 450.28 297.752 450.28 297.594C450.28 297.436 450.342 297.284 450.453 297.173C450.564 297.061 450.714 296.998 450.87 296.998H807.938C808.095 296.998 808.245 297.061 808.356 297.173C808.466 297.284 808.529 297.436 808.529 297.594C808.529 297.752 808.466 297.904 808.356 298.015C808.245 298.127 808.095 298.19 807.938 298.19Z" fill="#3F3D56"/>
<path d="M551.794 474.373C551.637 474.373 551.487 474.311 551.376 474.199C551.266 474.087 551.204 473.936 551.204 473.778V277.707C551.204 277.549 551.266 277.397 551.376 277.285C551.487 277.174 551.637 277.111 551.794 277.111C551.95 277.111 552.1 277.174 552.211 277.285C552.322 277.397 552.384 277.549 552.384 277.707V473.778C552.384 473.936 552.322 474.087 552.211 474.199C552.1 474.311 551.95 474.373 551.794 474.373V474.373Z" fill="#3F3D56"/>
<path d="M640.913 474.373C640.756 474.373 640.606 474.311 640.496 474.199C640.385 474.087 640.323 473.936 640.323 473.778V277.707C640.323 277.549 640.385 277.397 640.496 277.285C640.606 277.174 640.756 277.111 640.913 277.111C641.069 277.111 641.22 277.174 641.33 277.285C641.441 277.397 641.503 277.549 641.503 277.707V473.778C641.503 473.936 641.441 474.087 641.33 474.199C641.22 474.311 641.069 474.373 640.913 474.373V474.373Z" fill="#3F3D56"/>
<path d="M730.033 474.373C729.876 474.373 729.726 474.311 729.615 474.199C729.505 474.087 729.442 473.936 729.442 473.778V277.707C729.442 277.549 729.505 277.397 729.615 277.285C729.726 277.174 729.876 277.111 730.033 277.111C730.189 277.111 730.339 277.174 730.45 277.285C730.561 277.397 730.623 277.549 730.623 277.707V473.778C730.623 473.936 730.561 474.087 730.45 474.199C730.339 474.311 730.189 474.373 730.033 474.373V474.373Z" fill="#3F3D56"/>
<path d="M494.495 359.703H472.929C472.225 359.702 471.55 359.42 471.052 358.917C470.554 358.414 470.274 357.732 470.273 357.021V331.324C470.274 330.613 470.554 329.931 471.052 329.428C471.55 328.926 472.225 328.643 472.929 328.642H494.495C495.199 328.643 495.874 328.926 496.372 329.428C496.87 329.931 497.15 330.613 497.151 331.324V357.021C497.15 357.732 496.87 358.414 496.372 358.917C495.874 359.42 495.199 359.702 494.495 359.703V359.703Z" fill="#6C63FF"/>
<path d="M525.185 433.006H503.619C502.915 433.006 502.24 432.723 501.742 432.22C501.244 431.717 500.964 431.036 500.963 430.325V404.627C500.964 403.916 501.244 403.234 501.742 402.732C502.24 402.229 502.915 401.946 503.619 401.945H525.185C525.889 401.946 526.564 402.229 527.062 402.732C527.56 403.234 527.84 403.916 527.841 404.627V430.325C527.84 431.036 527.56 431.717 527.062 432.22C526.564 432.723 525.889 433.006 525.185 433.006V433.006Z" fill="#6C63FF"/>
<path d="M594.829 375.198H573.263C572.559 375.198 571.884 374.915 571.386 374.412C570.888 373.909 570.608 373.228 570.607 372.517V346.819C570.608 346.108 570.888 345.426 571.386 344.924C571.884 344.421 572.559 344.138 573.263 344.137H594.829C595.533 344.138 596.208 344.421 596.706 344.924C597.204 345.426 597.484 346.108 597.484 346.819V372.517C597.484 373.228 597.204 373.909 596.706 374.412C596.208 374.915 595.533 375.198 594.829 375.198V375.198Z" fill="#6C63FF"/>
<path d="M685.128 347.189H663.563C662.858 347.188 662.183 346.905 661.685 346.402C661.188 345.899 660.908 345.218 660.907 344.507V318.809C660.908 318.098 661.188 317.417 661.685 316.914C662.183 316.411 662.858 316.128 663.563 316.127H685.128C685.832 316.128 686.508 316.411 687.005 316.914C687.503 317.417 687.783 318.098 687.784 318.809V344.507C687.783 345.218 687.503 345.899 687.005 346.402C686.508 346.905 685.832 347.188 685.128 347.189V347.189Z" fill="#6C63FF"/>
<path d="M768.346 347.189H746.78C746.076 347.188 745.401 346.905 744.903 346.402C744.405 345.899 744.125 345.218 744.124 344.507V318.809C744.125 318.098 744.405 317.417 744.903 316.914C745.401 316.411 746.076 316.128 746.78 316.127H768.346C769.05 316.128 769.725 316.411 770.223 316.914C770.721 317.417 771.001 318.098 771.001 318.809V344.507C771.001 345.218 770.721 345.899 770.223 346.402C769.725 346.905 769.05 347.188 768.346 347.189V347.189Z" fill="#6C63FF"/>
<path d="M806.708 354.34H785.143C784.439 354.339 783.763 354.056 783.266 353.554C782.768 353.051 782.488 352.369 782.487 351.658V325.961C782.488 325.25 782.768 324.568 783.266 324.065C783.763 323.562 784.439 323.28 785.143 323.279H806.708C807.413 323.28 808.088 323.562 808.586 324.065C809.083 324.568 809.363 325.25 809.364 325.961V351.658C809.363 352.369 809.083 353.051 808.586 353.554C808.088 354.056 807.413 354.339 806.708 354.34Z" fill="#E6E6E6"/>
<path d="M789.593 400.229H768.027C767.323 400.228 766.648 399.945 766.15 399.442C765.652 398.94 765.372 398.258 765.371 397.547V371.849C765.372 371.138 765.652 370.457 766.15 369.954C766.648 369.451 767.323 369.168 768.027 369.167H789.593C790.297 369.168 790.972 369.451 791.47 369.954C791.968 370.457 792.248 371.138 792.249 371.849V397.547C792.248 398.258 791.968 398.94 791.47 399.442C790.972 399.945 790.297 400.228 789.593 400.229Z" fill="#E6E6E6"/>
<path d="M716.409 390.693H694.843C694.139 390.693 693.464 390.41 692.966 389.907C692.468 389.404 692.188 388.723 692.187 388.012V362.314C692.188 361.603 692.468 360.921 692.966 360.419C693.464 359.916 694.139 359.633 694.843 359.632H716.409C717.113 359.633 717.788 359.916 718.286 360.419C718.784 360.921 719.064 361.603 719.064 362.314V388.012C719.064 388.723 718.784 389.404 718.286 389.907C717.788 390.41 717.113 390.693 716.409 390.693Z" fill="#FFD037"/>
<path d="M674.505 400.229H652.939C652.235 400.228 651.56 399.945 651.062 399.442C650.564 398.94 650.284 398.258 650.283 397.547V371.849C650.284 371.138 650.564 370.457 651.062 369.954C651.56 369.451 652.235 369.168 652.939 369.167H674.505C675.209 369.168 675.884 369.451 676.382 369.954C676.88 370.457 677.16 371.138 677.161 371.849V397.547C677.16 398.258 676.88 398.94 676.382 399.442C675.884 399.945 675.209 400.228 674.505 400.229V400.229Z" fill="#E6E6E6"/>
<path d="M584.205 440.754H562.639C561.935 440.753 561.26 440.47 560.762 439.968C560.264 439.465 559.984 438.783 559.983 438.072V412.375C559.984 411.664 560.264 410.982 560.762 410.479C561.26 409.976 561.935 409.694 562.639 409.693H584.205C584.909 409.694 585.584 409.976 586.082 410.479C586.58 410.982 586.86 411.664 586.861 412.375V438.072C586.86 438.783 586.58 439.465 586.082 439.968C585.584 440.47 584.909 440.753 584.205 440.754Z" fill="#E6E6E6"/>
<path d="M475.019 406.784H453.453C452.749 406.784 452.074 406.501 451.576 405.998C451.078 405.495 450.798 404.814 450.797 404.102V378.405C450.798 377.694 451.078 377.012 451.576 376.509C452.074 376.007 452.749 375.724 453.453 375.723H475.019C475.723 375.724 476.398 376.007 476.896 376.509C477.394 377.012 477.674 377.694 477.675 378.405V404.103C477.674 404.814 477.394 405.495 476.896 405.998C476.398 406.501 475.723 406.784 475.019 406.784V406.784Z" fill="#FFD037"/>
<path d="M535.809 359.703H514.243C513.539 359.702 512.864 359.42 512.366 358.917C511.868 358.414 511.588 357.732 511.587 357.021V331.324C511.588 330.613 511.868 329.931 512.366 329.428C512.864 328.926 513.539 328.643 514.243 328.642H535.809C536.513 328.643 537.188 328.926 537.686 329.428C538.184 329.931 538.464 330.613 538.464 331.324V357.021C538.464 357.732 538.184 358.414 537.686 358.917C537.188 359.42 536.513 359.702 535.809 359.703V359.703Z" fill="#E6E6E6"/>
<path d="M518.153 288.435H484.512C483.886 288.435 483.285 288.184 482.842 287.736C482.4 287.289 482.151 286.683 482.151 286.051C482.151 285.419 482.4 284.812 482.842 284.365C483.285 283.918 483.886 283.667 484.512 283.667H518.153C518.779 283.667 519.379 283.918 519.822 284.365C520.265 284.812 520.514 285.419 520.514 286.051C520.514 286.683 520.265 287.289 519.822 287.736C519.379 288.184 518.779 288.435 518.153 288.435Z" fill="#CCCCCC"/>
<path d="M613.174 288.435H579.533C578.907 288.435 578.307 288.184 577.864 287.736C577.421 287.289 577.172 286.683 577.172 286.051C577.172 285.419 577.421 284.812 577.864 284.365C578.307 283.918 578.907 283.667 579.533 283.667H613.174C613.8 283.667 614.401 283.918 614.844 284.365C615.286 284.812 615.535 285.419 615.535 286.051C615.535 286.683 615.286 287.289 614.844 287.736C614.401 288.184 613.8 288.435 613.174 288.435Z" fill="#CCCCCC"/>
<path d="M702.294 288.435H668.653C668.027 288.435 667.426 288.184 666.983 287.736C666.541 287.289 666.292 286.683 666.292 286.051C666.292 285.419 666.541 284.812 666.983 284.365C667.426 283.918 668.027 283.667 668.653 283.667H702.294C702.92 283.667 703.52 283.918 703.963 284.365C704.406 284.812 704.655 285.419 704.655 286.051C704.655 286.683 704.406 287.289 703.963 287.736C703.52 288.184 702.92 288.435 702.294 288.435Z" fill="#CCCCCC"/>
<path d="M785.511 288.435H751.87C751.243 288.435 750.643 288.184 750.2 287.736C749.758 287.289 749.509 286.683 749.509 286.051C749.509 285.419 749.758 284.812 750.2 284.365C750.643 283.918 751.243 283.667 751.87 283.667H785.511C786.137 283.667 786.737 283.918 787.18 284.365C787.623 284.812 787.871 285.419 787.871 286.051C787.871 286.683 787.623 287.289 787.18 287.736C786.737 288.184 786.137 288.435 785.511 288.435Z" fill="#CCCCCC"/>
</svg>
