<svg width="1104" height="634" viewBox="0 0 1104 634" fill="none" xmlns="http://www.w3.org/2000/svg">
<g opacity="0.1">
<path opacity="0.1" d="M625.055 26.79C625.055 182.89 722.985 309.2 844.055 309.2Z" fill="#2A94F4"/>
</g>
<path d="M627.455 130.03C556.705 130.57 488.725 114.58 423.725 96.76C358.725 78.94 294.255 58.9 224.935 50.72C180.315 45.45 129.535 46.28 94.4646 66.72C60.7146 86.38 50.7246 118.61 45.7946 148.35C42.0846 170.73 40.2746 194.21 53.3346 214.57C62.3546 228.7 77.9346 240.3 88.9346 253.76C127.195 300.59 103.465 360.86 65.5246 409.27C47.7346 431.98 26.9246 453.77 13.4246 477.75C-0.0753756 501.73 -5.75538 528.85 7.63462 552.35C20.9146 575.63 51.1746 592.35 83.7246 603.8C149.855 626.9 226.935 631.5 301.985 632.96C468.125 636.21 634.695 626.33 800.815 616.46C862.285 612.8 924.035 609.12 984.295 599.31C1017.75 593.86 1052.21 585.87 1076.03 568.7C1106.28 546.9 1112.71 511.59 1091.03 486.37C1054.66 444.08 958.035 436.69 932.035 390.84C917.725 365.6 930.465 336.47 949.035 311.92C988.975 259.28 1057.38 211.92 1059.03 153.3C1060.13 113.05 1025.03 74.02 972.355 56.87C917.105 38.87 841.565 44.08 802.505 78.48C762.275 113.9 689.935 129.56 627.455 130.03Z" fill="#EEEEEE"/>
<path d="M946.935 31.19V549.6C946.935 565.02 932.055 577.6 913.695 577.6H210.275C191.915 577.6 177.045 565.06 177.045 549.6V31.19C177.045 15.74 191.915 0 210.275 0L913.605 1.71C931.935 1.71 946.935 15.74 946.935 31.19Z" fill="white"/>
<path d="M946.935 31.35V55.35H177.045V31.35C177.045 23.0372 180.346 15.0647 186.223 9.18576C192.1 3.30679 200.072 0.00267713 208.385 2.55145e-05H915.535C919.655 -0.00523079 923.737 0.801712 927.546 2.37472C931.354 3.94773 934.816 6.25596 937.732 9.16747C940.648 12.079 942.962 15.5367 944.541 19.3429C946.12 23.1491 946.933 27.2292 946.935 31.35V31.35Z" fill="#1C1C1D"/>
<path opacity="0.8" d="M214.335 38.75C220.454 38.75 225.415 33.7893 225.415 27.67C225.415 21.5507 220.454 16.59 214.335 16.59C208.215 16.59 203.255 21.5507 203.255 27.67C203.255 33.7893 208.215 38.75 214.335 38.75Z" fill="#FA5959"/>
<path opacity="0.8" d="M246.565 38.75C252.684 38.75 257.645 33.7893 257.645 27.67C257.645 21.5507 252.684 16.59 246.565 16.59C240.445 16.59 235.485 21.5507 235.485 27.67C235.485 33.7893 240.445 38.75 246.565 38.75Z" fill="#FED253"/>
<path opacity="0.8" d="M278.795 38.75C284.914 38.75 289.875 33.7893 289.875 27.67C289.875 21.5507 284.914 16.59 278.795 16.59C272.675 16.59 267.715 21.5507 267.715 27.67C267.715 33.7893 272.675 38.75 278.795 38.75Z" fill="#8CCF4D"/>
<path opacity="0.2" d="M518.475 170.7H465.605C460.872 170.7 457.035 174.537 457.035 179.27V195.35C457.035 200.083 460.872 203.92 465.605 203.92H518.475C523.208 203.92 527.045 200.083 527.045 195.35V179.27C527.045 174.537 523.208 170.7 518.475 170.7Z" fill="#2A94F4"/>
<path opacity="0.2" d="M660.315 170.7H607.445C602.712 170.7 598.875 174.537 598.875 179.27V195.35C598.875 200.083 602.712 203.92 607.445 203.92H660.315C665.048 203.92 668.885 200.083 668.885 195.35V179.27C668.885 174.537 665.048 170.7 660.315 170.7Z" fill="#2A94F4"/>
<path d="M491.845 203.17L561.925 294.68L634.115 202.74" stroke="#3F3D56" stroke-miterlimit="10"/>
<path opacity="0.1" d="M606.865 291.75H516.975C512.242 291.75 508.405 295.587 508.405 300.32V333.97C508.405 338.703 512.242 342.54 516.975 342.54H606.865C611.598 342.54 615.435 338.703 615.435 333.97V300.32C615.435 295.587 611.598 291.75 606.865 291.75Z" fill="black"/>
<path d="M604.695 292.79H519.155C514.422 292.79 510.585 296.627 510.585 301.36V332.95C510.585 337.683 514.422 341.52 519.155 341.52H604.695C609.428 341.52 613.265 337.683 613.265 332.95V301.36C613.265 296.627 609.428 292.79 604.695 292.79Z" fill="#2A94F4"/>
<path d="M492.325 170.7L491.415 138.35" stroke="#3F3D56" stroke-miterlimit="10"/>
<path d="M675.255 139.93L634.115 170.7L590.845 139.93" stroke="#3F3D56" stroke-miterlimit="10"/>
<path opacity="0.2" d="M518.085 106.7H465.215C460.482 106.7 456.645 110.537 456.645 115.27V131.35C456.645 136.083 460.482 139.92 465.215 139.92H518.085C522.818 139.92 526.655 136.083 526.655 131.35V115.27C526.655 110.537 522.818 106.7 518.085 106.7Z" fill="#2A94F4"/>
<path opacity="0.2" d="M701.685 106.7H648.815C644.082 106.7 640.245 110.537 640.245 115.27V131.35C640.245 136.083 644.082 139.92 648.815 139.92H701.685C706.418 139.92 710.255 136.083 710.255 131.35V115.27C710.255 110.537 706.418 106.7 701.685 106.7Z" fill="#2A94F4"/>
<path opacity="0.2" d="M617.285 106.7H564.415C559.682 106.7 555.845 110.537 555.845 115.27V131.35C555.845 136.083 559.682 139.92 564.415 139.92H617.285C622.018 139.92 625.855 136.083 625.855 131.35V115.27C625.855 110.537 622.018 106.7 617.285 106.7Z" fill="#2A94F4"/>
<path d="M561.925 341.51L561.655 430.01" stroke="#3F3D56" stroke-miterlimit="10"/>
<path d="M562 462V493" stroke="#3F3D56" stroke-miterlimit="10"/>
<path d="M462.455 493.11L561.455 462.48L660.855 492.89" stroke="#3F3D56" stroke-miterlimit="10"/>
<path opacity="0.2" d="M588.095 430.01H535.225C530.492 430.01 526.655 433.847 526.655 438.58V454.66C526.655 459.393 530.492 463.23 535.225 463.23H588.095C592.828 463.23 596.665 459.393 596.665 454.66V438.58C596.665 433.847 592.828 430.01 588.095 430.01Z" fill="#2A94F4"/>
<path opacity="0.2" d="M865.425 292.07V239.2C865.425 234.467 861.588 230.63 856.855 230.63H840.775C836.042 230.63 832.205 234.467 832.205 239.2V292.07C832.205 296.803 836.042 300.64 840.775 300.64H856.855C861.588 300.64 865.425 296.803 865.425 292.07Z" fill="#2A94F4"/>
<path opacity="0.2" d="M832.205 348.83V401.7C832.205 406.433 836.042 410.27 840.775 410.27H856.855C861.588 410.27 865.425 406.433 865.425 401.7V348.83C865.425 344.097 861.588 340.26 856.855 340.26H840.775C836.042 340.26 832.205 344.097 832.205 348.83Z" fill="#2A94F4"/>
<path opacity="0.2" d="M687.295 492.66H634.425C629.692 492.66 625.855 496.497 625.855 501.23V517.31C625.855 522.043 629.692 525.88 634.425 525.88H687.295C692.028 525.88 695.865 522.043 695.865 517.31V501.23C695.865 496.497 692.028 492.66 687.295 492.66Z" fill="#2A94F4"/>
<path opacity="0.2" d="M436.025 525.89H488.895C493.628 525.89 497.465 522.053 497.465 517.32V501.24C497.465 496.507 493.628 492.67 488.895 492.67H436.025C431.292 492.67 427.455 496.507 427.455 501.24V517.32C427.455 522.053 431.292 525.89 436.025 525.89Z" fill="#2A94F4"/>
<path opacity="0.2" d="M536.965 525.89H589.835C594.568 525.89 598.405 522.053 598.405 517.32V501.24C598.405 496.507 594.568 492.67 589.835 492.67H536.965C532.232 492.67 528.395 496.507 528.395 501.24V517.32C528.395 522.053 532.232 525.89 536.965 525.89Z" fill="#2A94F4"/>
<path d="M801.035 320.45L832.195 374.94" stroke="#3F3D56" stroke-miterlimit="10"/>
<path d="M735.145 319.78H767.855" stroke="#3F3D56" stroke-miterlimit="10"/>
<path d="M613.265 317.15L702.545 319.78" stroke="#3F3D56" stroke-miterlimit="10"/>
<path d="M832.195 265.63L801.185 320.21" stroke="#3F3D56" stroke-miterlimit="10"/>
<path opacity="0.2" d="M735.765 346.01V293.14C735.765 288.407 731.928 284.57 727.195 284.57H711.115C706.382 284.57 702.545 288.407 702.545 293.14V346.01C702.545 350.743 706.382 354.58 711.115 354.58H727.195C731.928 354.58 735.765 350.743 735.765 346.01Z" fill="#2A94F4"/>
<path opacity="0.2" d="M801.035 346.88V294.01C801.035 289.277 797.198 285.44 792.465 285.44H776.385C771.652 285.44 767.815 289.277 767.815 294.01V346.88C767.815 351.613 771.652 355.45 776.385 355.45H792.465C797.198 355.45 801.035 351.613 801.035 346.88Z" fill="#2A94F4"/>
<path opacity="0.2" d="M291.645 292.06V239.19C291.645 234.457 287.808 230.62 283.075 230.62H266.995C262.262 230.62 258.425 234.457 258.425 239.19V292.06C258.425 296.793 262.262 300.63 266.995 300.63H283.075C287.808 300.63 291.645 296.793 291.645 292.06Z" fill="#2A94F4"/>
<path opacity="0.2" d="M258.425 348.83V401.7C258.425 406.433 262.262 410.27 266.995 410.27H283.075C287.808 410.27 291.645 406.433 291.645 401.7V348.83C291.645 344.097 287.808 340.26 283.075 340.26H266.995C262.262 340.26 258.425 344.097 258.425 348.83Z" fill="#2A94F4"/>
<path d="M322.815 320.45L291.645 374.94" stroke="#3F3D56" stroke-miterlimit="10"/>
<path d="M388.695 319.78H355.995" stroke="#3F3D56" stroke-miterlimit="10"/>
<path d="M510.585 317.15L421.305 319.78" stroke="#3F3D56" stroke-miterlimit="10"/>
<path d="M291.645 265.63L322.655 320.21" stroke="#3F3D56" stroke-miterlimit="10"/>
<path opacity="0.2" d="M421.305 346.02V293.15C421.305 288.417 417.468 284.58 412.735 284.58H396.655C391.922 284.58 388.085 288.417 388.085 293.15V346.02C388.085 350.753 391.922 354.59 396.655 354.59H412.735C417.468 354.59 421.305 350.753 421.305 346.02Z" fill="#2A94F4"/>
<path opacity="0.2" d="M356.035 346.88V294.01C356.035 289.277 352.198 285.44 347.465 285.44H331.385C326.652 285.44 322.815 289.277 322.815 294.01V346.88C322.815 351.613 326.652 355.45 331.385 355.45H347.465C352.198 355.45 356.035 351.613 356.035 346.88Z" fill="#2A94F4"/>
</svg>
